<?xml version="1.0" encoding="utf-8"?>
<!-- Generator: Adobe Illustrator 24.0.2, SVG Export Plug-In . SVG Version: 6.00 Build 0)  -->
<svg version="1.1" id="Layer_1" xmlns="http://www.w3.org/2000/svg" xmlns:xlink="http://www.w3.org/1999/xlink" x="0px" y="0px"
	 viewBox="0 0 2000 1000" style="enable-background:new 0 0 2000 1000;" xml:space="preserve">
<style type="text/css">
	.st0{fill:#020202;}
	.st1{fill:#CA112A;}
	.st2{fill:#FFFFFF;}
</style>
<rect x="-3227.46" y="-1863.19" width="5861.49" height="3775.71"/>
<polygon class="st1" points="322.96,564.75 322.96,402.89 288.98,402.89 288.98,597.11 370.72,597.11 370.72,564.75 368.02,564.75 
	"/>
<path class="st1" d="M439.79,400.19c-14.85-0.01-27.2,4.74-35.72,13.57c-8.54,8.82-13.11,21.52-13.1,36.88v98.74
	c-0.01,15.35,4.56,28.05,13.1,36.88c8.53,8.83,20.87,13.58,35.72,13.57c14.85,0.01,27.2-4.74,35.73-13.57
	c8.54-8.82,13.11-21.52,13.1-36.88v-98.74c0.01-15.35-4.56-28.05-13.1-36.88C466.98,404.92,454.64,400.17,439.79,400.19z
	 M424.95,450.9c0-6.64,1.49-11.39,3.91-14.35c1.22-1.49,2.68-2.59,4.46-3.35c1.79-0.76,3.93-1.18,6.46-1.18
	c2.54,0,4.68,0.42,6.46,1.18c2.67,1.16,4.64,3.03,6.1,5.92c1.44,2.88,2.28,6.82,2.28,11.79v98.2c0,6.64-1.49,11.39-3.91,14.35
	c-1.22,1.49-2.68,2.59-4.47,3.35c-1.79,0.76-3.93,1.18-6.46,1.18c-2.54,0-4.68-0.42-6.46-1.18c-2.67-1.15-4.64-3.03-6.1-5.91
	c-1.44-2.88-2.28-6.82-2.28-11.79V450.9z"/>
<polygon class="st1" points="563.61,532.97 544.37,402.89 509.72,402.89 542.46,597.11 544.74,597.11 583.98,597.11 616.72,402.89 
	582.61,402.89 "/>
<polygon class="st1" points="642.14,597.11 727.92,597.11 727.92,565.29 676.12,565.29 676.12,514.56 717.94,514.56 717.94,482.74 
	676.12,482.74 676.12,434.71 727.92,434.71 727.92,402.89 642.14,402.89 "/>
<g>
	<polygon class="st2" points="913.83,512 899.72,402.89 869.62,402.89 855.51,512 841.17,402.89 806.26,402.89 836.23,597.11 
		870,597.11 884.38,498.82 898.53,597.11 900.86,597.11 932.3,597.11 962.27,402.89 928.17,402.89 	"/>
	<polygon class="st2" points="987.74,597.11 1073.52,597.11 1073.52,565.29 1021.72,565.29 1021.72,514.56 1063.54,514.56 
		1063.54,482.74 1021.72,482.74 1021.72,434.71 1073.52,434.71 1073.52,402.89 987.74,402.89 	"/>
	<path class="st2" d="M1176.56,495.55c5.31-2.85,9.42-6.94,12.23-12.18c3.74-6.96,5.31-15.76,5.31-26.54v-3.51
		c0.01-15.95-4.1-28.66-12.41-37.37c-4.14-4.35-9.3-7.64-15.31-9.82c-6.02-2.18-12.89-3.26-20.56-3.26h-42.62v194.23h44.78
		c7.93,0,15.04-1.08,21.28-3.25c9.35-3.24,16.71-9.03,21.59-17.05c4.89-8.02,7.31-18.15,7.31-30.14v-6.48
		c-0.01-12.67-1.91-22.84-6.35-30.73C1188.32,503.25,1183.18,498.63,1176.56,495.55z M1160.13,460.61c0,3.82-0.34,7.03-1.02,9.63
		c-1.03,3.91-2.66,6.37-5.05,8.03c-2.4,1.65-5.83,2.58-10.67,2.58h-6.21v-46.14l7.56,0c2.85,0,5.19,0.41,7.07,1.15
		c2.81,1.13,4.7,2.91,6.12,5.86c1.41,2.95,2.19,7.17,2.19,12.69V460.61z M1137.19,512.67h8.37c3.55,0,6.47,0.45,8.79,1.28
		c3.48,1.28,5.71,3.26,7.35,6.47c1.62,3.22,2.48,7.8,2.48,13.83v10.52c0,3.81-0.37,7.02-1.09,9.63c-1.09,3.94-2.83,6.48-5.34,8.2
		c-2.51,1.72-6.03,2.67-10.84,2.68h-9.72V512.67z"/>
	<path class="st2" d="M1275.71,482.84c-9.47-8-15.28-14.25-18.64-19.64c-3.35-5.4-4.39-9.86-4.41-15v-2.43
		c0-4.99,1.19-8.39,3.06-10.49c0.95-1.06,2.08-1.85,3.53-2.41c1.44-0.56,3.19-0.87,5.29-0.87c2.09,0,3.85,0.31,5.29,0.87
		c2.16,0.85,3.66,2.17,4.79,4.23c1.12,2.05,1.8,4.93,1.79,8.66v9.98l32.9-3.23v-7.3c0.01-13.98-4.02-25.37-11.89-33.2
		c-7.87-7.83-19.32-11.86-33.43-11.85c-14.11-0.01-25.56,4.01-33.43,11.85c-7.87,7.83-11.9,19.23-11.89,33.2v4.05
		c-0.01,11.41,2.34,21.46,8.09,31.3c5.74,9.85,14.74,19.48,27.94,30.65c9.48,8.01,15.51,14.28,19.07,19.78
		c3.55,5.52,4.77,10.16,4.79,15.66v6.2c0,2.76-0.32,5.1-0.9,7.01c-0.88,2.87-2.26,4.74-4.22,6.04c-1.96,1.3-4.69,2.06-8.38,2.06
		c-2.45,0-4.5-0.34-6.16-0.95c-2.48-0.93-4.15-2.36-5.39-4.6c-1.23-2.24-1.95-5.41-1.95-9.56v-16.46l-32.9,3.23v15.12
		c-0.02,13.99,4.17,25.42,12.33,33.24c8.15,7.82,19.98,11.82,34.61,11.81c14.63,0.01,26.46-3.99,34.61-11.81
		c8.16-7.82,12.34-19.24,12.33-33.24v-9.44c0.02-11.71-2.56-21.9-8.51-31.8C1298.09,503.61,1288.9,493.99,1275.71,482.84z"/>
	<polygon class="st2" points="1335.22,597.11 1337.91,597.11 1369.2,597.11 1369.2,402.89 1335.22,402.89 	"/>
	<polygon class="st2" points="1392.68,435.25 1423.17,435.25 1423.17,597.11 1457.15,597.11 1457.15,435.25 1487.63,435.25 
		1487.63,402.89 1392.68,402.89 	"/>
	<polygon class="st2" points="1511.12,597.11 1596.9,597.11 1596.9,565.29 1545.1,565.29 1545.1,514.56 1586.92,514.56 
		1586.92,482.74 1545.1,482.74 1545.1,434.71 1596.9,434.71 1596.9,402.89 1511.12,402.89 	"/>
	<path class="st2" d="M1702.51,513.52c-5.94-9.91-15.13-19.53-28.32-30.68c-9.47-8-15.28-14.25-18.64-19.64
		c-3.35-5.4-4.39-9.86-4.41-15v-2.43c0-4.99,1.19-8.39,3.06-10.49c0.95-1.06,2.08-1.85,3.53-2.41c1.44-0.56,3.19-0.87,5.29-0.87
		c2.09,0,3.85,0.31,5.29,0.87c2.16,0.85,3.66,2.17,4.79,4.23c1.12,2.05,1.8,4.93,1.79,8.66v9.98l32.9-3.23v-7.3
		c0.01-13.98-4.02-25.37-11.89-33.2c-7.87-7.83-19.32-11.86-33.43-11.85c-14.11-0.01-25.56,4.01-33.43,11.85
		c-7.87,7.83-11.9,19.23-11.89,33.2v4.05c-0.01,11.41,2.34,21.46,8.09,31.3c5.74,9.85,14.74,19.48,27.94,30.65
		c9.48,8.01,15.51,14.28,19.07,19.78c3.55,5.52,4.77,10.16,4.79,15.66v6.2c0,2.76-0.32,5.1-0.9,7.01c-0.88,2.87-2.26,4.74-4.22,6.04
		c-1.96,1.3-4.69,2.06-8.38,2.06c-2.45,0-4.5-0.34-6.16-0.95c-2.48-0.93-4.15-2.36-5.39-4.6c-1.23-2.24-1.95-5.41-1.95-9.56v-16.46
		l-32.9,3.23v15.12c-0.02,13.99,4.17,25.42,12.33,33.24c8.15,7.82,19.98,11.82,34.61,11.81c14.63,0.01,26.46-3.99,34.61-11.81
		c8.16-7.82,12.34-19.24,12.33-33.24v-9.44C1711.03,533.61,1708.46,523.42,1702.51,513.52z"/>
</g>
</svg>
