<svg xmlns="http://www.w3.org/2000/svg" xml:space="preserve" id="Layer_1" x="0" y="0" style="enable-background:new 0 0 2000 2000" version="1.1" viewBox="0 0 2000 2000"><style>.st2{fill:#fff}</style><path d="M1376.38 1069.72a391.392 391.392 0 0 0-42.56-93.88V545.53c0-16.78-3.42-32.92-9.61-47.54a122.049 122.049 0 0 0-26.15-38.82l-.02-.01a122.67 122.67 0 0 0-38.81-26.15c-14.64-6.19-30.76-9.61-47.56-9.61s-32.92 3.42-47.56 9.61c-21.95 9.29-40.54 24.74-53.7 44.22-6.58 9.75-11.8 20.51-15.37 32-3.59 11.5-5.5 23.73-5.5 36.31v172.64c-1.43-.69-2.87-1.35-4.34-1.98-11.37-4.81-23.94-7.46-36.97-7.46-13.04 0-25.6 2.65-36.97 7.48a95.087 95.087 0 0 0-40.14 32.06 90.74 90.74 0 0 0-9.98-11.72v-.02a95.126 95.126 0 0 0-30.16-20.34c-11.37-4.81-23.94-7.46-36.97-7.46-13.03 0-25.6 2.65-36.97 7.48-1.46.61-2.9 1.27-4.32 1.98v-23.51c0-16.78-3.42-32.92-9.61-47.54-6.19-14.64-15.13-27.77-26.18-38.81v-.01a122.144 122.144 0 0 0-38.81-26.16c-14.62-6.19-30.76-9.61-47.54-9.61-16.8 0-32.92 3.42-47.56 9.61-21.95 9.29-40.55 24.74-53.72 44.22-6.58 9.75-11.8 20.51-15.37 32-3.59 11.5-5.5 23.73-5.5 36.31v454.07a396.312 396.312 0 0 0-1.53 34.76c0 54.19 11 105.97 30.9 153.02 29.87 70.58 79.67 130.54 142.4 172.93 62.7 42.38 138.48 67.16 219.8 67.15 54.21 0 105.98-11 153.02-30.9 70.58-29.87 130.55-79.67 172.93-142.4 42.38-62.7 67.16-138.48 67.15-219.8 0-39.53-5.84-77.77-16.72-113.81zm-212.6-566.83c25.5-32.23 66.15-32.95 92.71-1.58 14.04 16.58 21.64 36.25 21.7 57.67.28 77.97.34 155.95.34 233.92v14.29c0 30.11-.01 60.23-.01 90.34l.01 70.26s-1.07-2.45-6.44-7.08c-2.35-1.88-4.71-3.71-7.09-5.47-9.2-6.45-11.11-7.79-11.5-8.07-4.11-2.61-8.82-5.36-14.25-8.21-29.09-15.53-60.99-23.48-95.9-24.65v-14.53c-.15-109.27-.23-218.52-.49-327.77-.05-25.24 4.87-48.86 20.92-69.12zM980.39 895.54c.02-18.46.17-36.83.59-55.19.55-24.45 10.62-46.04 29.31-62.66 27.27-24.25 65.5-21.72 90.25 5.91 15.56 17.36 22.84 38.18 23.46 61.2.18 6.68.28 13.37.33 20.05l.06-.01v51.65s-70.33 3.91-143.99 74.74l-.01-95.69zm-162.95-46.08c.14-25.25 7.67-48.36 25.67-67.01 27.22-28.19 67.43-27.62 93.87 1.35 16.35 17.92 23.98 39.57 24.2 63.44.28 31.3.22 62.6.21 93.9l.12 53.77.03 6.36-.02.36.02 8.63s-4.01 3.81-8.56 8.96c-2.65 3.19-5.24 6.41-7.69 9.7l-.07.1-.07.09c-12.11 16.28-20.68 34.1-15.24 57.99-40.51-15.77-74.91-10.22-103.54 22.52-8.1-11.57-8.89-24.27-8.94-36.63-.31-74.51-.4-149.02.01-223.53zm275.89 430.32-.26.2c-25.66 21.85-52.81 41.93-80.12 61.81l-15.37 11.85-39.33-29.7h.01c-38.54-28.49-76.3-57.9-108.12-94.38-25.2-28.89-31.34-69.16-15.25-100.22 14.01-27.07 44.69-40 73.94-31.16 24.45 7.4 45.32 20.6 64.27 36.65 2.56 2.18 5.1 4.4 7.6 6.68 9.7 9.33 16.89 19.21 16.89 19.21 1.01-2.45 3.62-5.75 6.97-9.34.87-.71 1.78-1.56 2.74-2.56 2.15-2.21 4.32-4.38 6.55-6.5.26-.25.52-.49.78-.72 5.33-5.06 10.88-9.81 16.64-14.25 12.69-9.76 26.46-18.01 41.41-24.45 50.76-21.87 96.36 8.2 96.48 72.71-.38 16.84-9.98 39.36-27.65 58.39-15.18 16.34-31.39 31.44-48.23 45.79l.05-.01zm-2.47 229.27c-201 58.97-408.96-85.31-424.36-293.81-5.56-75.32-.99-150.96-1.92-226.44-.13-10.91-.02-21.83-.02-32.75 0-80.51-.03-161.02.02-241.54.01-24.23 5.41-46.92 20.62-66.41 25.56-32.74 65.93-33.13 91.9-.79 15.8 19.67 21.09 42.69 21.07 67.55-.1 116.45.02 232.89.15 349.34.03 21.5.83 42.93 15.23 60.84 3.31 4.12.78 7.84-.28 11.54-10.34 36.4-2.49 69.31 19.73 99.01 15.89 21.24 35.95 38.53 56.07 55.62 28.69 24.37 58.63 47.1 89.38 68.77h-.02l19.13 13.75 4.04-2.88c.48-.26.96-.56 1.48-.92 7.59-5.47 15.19-10.92 22.78-16.4l.65-.47h-.01c46.04-33.24 91.43-67.28 129.6-109.91 26.95-30.11 36.78-65.52 26.3-105.07-11.54-43.57-55.12-68.13-98.77-56.8-24.34 6.32-44.47 20.17-64.09 35.08-17.44 13.24-26.16 13-43.66-.78-7.87-6.2-15.11-12.92-21.24-21.03-9.54-12.63-11.07-27.03-3.01-39.09 47.42-71.01 109.29-123.16 198.67-122.87 77.89.25 134.76 42.07 162.1 114.64 66.39 176.22-6.27 398.67-221.54 461.82z" style="fill:#020202"/><path d="M1141.52 1234.01c17.67-19.04 27.27-41.55 27.65-58.39-.12-64.51-45.72-94.58-96.48-72.71-14.96 6.44-28.72 14.68-41.41 24.45-5.76 4.45-11.31 9.2-16.64 14.25-.26.23-.52.48-.78.72-2.22 2.11-4.4 4.29-6.55 6.5-.97 1-1.87 1.85-2.74 2.56-3.36 3.59-5.96 6.88-6.97 9.34 0 0-7.19-9.87-16.89-19.21-2.5-2.28-5.04-4.51-7.6-6.68-18.94-16.05-39.82-29.24-64.27-36.65-29.24-8.84-59.93 4.09-73.94 31.16-16.09 31.07-9.95 71.33 15.25 100.22 31.82 36.48 69.58 65.89 108.12 94.38h-.01l39.33 29.7 15.37-11.85c27.32-19.87 54.46-39.96 80.12-61.81l.26-.2-.04.01c16.83-14.35 33.04-29.46 48.22-45.79z" style="fill:#ca112a"/></svg>