<svg xmlns="http://www.w3.org/2000/svg" xml:space="preserve" style="enable-background:new 0 0 2000 1000" viewBox="0 0 2000 1000"><path d="M322.96 564.75V402.89h-33.98v194.22h81.74v-32.36h-2.7zm116.83-164.56c-14.85-.01-27.2 4.74-35.72 13.57-8.54 8.82-13.11 21.52-13.1 36.88v98.74c-.01 15.35 4.56 28.05 13.1 36.88 8.53 8.83 20.87 13.58 35.72 13.57 14.85.01 27.2-4.74 35.73-13.57 8.54-8.82 13.11-21.52 13.1-36.88v-98.74c.01-15.35-4.56-28.05-13.1-36.88-8.54-8.84-20.88-13.59-35.73-13.57zm-14.84 50.71c0-6.64 1.49-11.39 3.91-14.35 1.22-1.49 2.68-2.59 4.46-3.35 1.79-.76 3.93-1.18 6.46-1.18 2.54 0 4.68.42 6.46 1.18 2.67 1.16 4.64 3.03 6.1 5.92 1.44 2.88 2.28 6.82 2.28 11.79v98.2c0 6.64-1.49 11.39-3.91 14.35a11.406 11.406 0 0 1-4.47 3.35c-1.79.76-3.93 1.18-6.46 1.18-2.54 0-4.68-.42-6.46-1.18-2.67-1.15-4.64-3.03-6.1-5.91-1.44-2.88-2.28-6.82-2.28-11.79V450.9zm138.66 82.07-19.24-130.08h-34.65l32.74 194.22h41.52l32.74-194.22h-34.11zm78.53 64.14h85.78v-31.82h-51.8v-50.73h41.82v-31.82h-41.82v-48.03h51.8v-31.82h-85.78z" style="fill:#ca112a"/><path d="m913.83 512-14.11-109.11h-30.1L855.51 512l-14.34-109.11h-34.91l29.97 194.22H870l14.38-98.29 14.15 98.29h33.77l29.97-194.22h-34.1zm73.91 85.11h85.78v-31.82h-51.8v-50.73h41.82v-31.82h-41.82v-48.03h51.8v-31.82h-85.78zm188.82-101.56c5.31-2.85 9.42-6.94 12.23-12.18 3.74-6.96 5.31-15.76 5.31-26.54v-3.51c.01-15.95-4.1-28.66-12.41-37.37-4.14-4.35-9.3-7.64-15.31-9.82-6.02-2.18-12.89-3.26-20.56-3.26h-42.62V597.1h44.78c7.93 0 15.04-1.08 21.28-3.25 9.35-3.24 16.71-9.03 21.59-17.05 4.89-8.02 7.31-18.15 7.31-30.14v-6.48c-.01-12.67-1.91-22.84-6.35-30.73-3.49-6.2-8.63-10.82-15.25-13.9zm-16.43-34.94c0 3.82-.34 7.03-1.02 9.63-1.03 3.91-2.66 6.37-5.05 8.03-2.4 1.65-5.83 2.58-10.67 2.58h-6.21v-46.14h7.56c2.85 0 5.19.41 7.07 1.15 2.81 1.13 4.7 2.91 6.12 5.86 1.41 2.95 2.19 7.17 2.19 12.69v6.2zm-22.94 52.06h8.37c3.55 0 6.47.45 8.79 1.28 3.48 1.28 5.71 3.26 7.35 6.47 1.62 3.22 2.48 7.8 2.48 13.83v10.52c0 3.81-.37 7.02-1.09 9.63-1.09 3.94-2.83 6.48-5.34 8.2-2.51 1.72-6.03 2.67-10.84 2.68h-9.72v-52.61zm138.52-29.83c-9.47-8-15.28-14.25-18.64-19.64-3.35-5.4-4.39-9.86-4.41-15v-2.43c0-4.99 1.19-8.39 3.06-10.49.95-1.06 2.08-1.85 3.53-2.41 1.44-.56 3.19-.87 5.29-.87 2.09 0 3.85.31 5.29.87 2.16.85 3.66 2.17 4.79 4.23 1.12 2.05 1.8 4.93 1.79 8.66v9.98l32.9-3.23v-7.3c.01-13.98-4.02-25.37-11.89-33.2-7.87-7.83-19.32-11.86-33.43-11.85-14.11-.01-25.56 4.01-33.43 11.85-7.87 7.83-11.9 19.23-11.89 33.2v4.05c-.01 11.41 2.34 21.46 8.09 31.3 5.74 9.85 14.74 19.48 27.94 30.65 9.48 8.01 15.51 14.28 19.07 19.78 3.55 5.52 4.77 10.16 4.79 15.66v6.2c0 2.76-.32 5.1-.9 7.01-.88 2.87-2.26 4.74-4.22 6.04-1.96 1.3-4.69 2.06-8.38 2.06-2.45 0-4.5-.34-6.16-.95-2.48-.93-4.15-2.36-5.39-4.6-1.23-2.24-1.95-5.41-1.95-9.56v-16.46l-32.9 3.23v15.12c-.02 13.99 4.17 25.42 12.33 33.24 8.15 7.82 19.98 11.82 34.61 11.81 14.63.01 26.46-3.99 34.61-11.81 8.16-7.82 12.34-19.24 12.33-33.24v-9.44c.02-11.71-2.56-21.9-8.51-31.8-5.94-9.89-15.13-19.51-28.32-30.66zm59.51 114.27h33.98V402.89h-33.98zm57.46-161.86h30.49v161.86h33.98V435.25h30.48v-32.36h-94.95zm118.44 161.86h85.78v-31.82h-51.8v-50.73h41.82v-31.82h-41.82v-48.03h51.8v-31.82h-85.78zm191.39-83.59c-5.94-9.91-15.13-19.53-28.32-30.68-9.47-8-15.28-14.25-18.64-19.64-3.35-5.4-4.39-9.86-4.41-15v-2.43c0-4.99 1.19-8.39 3.06-10.49.95-1.06 2.08-1.85 3.53-2.41 1.44-.56 3.19-.87 5.29-.87 2.09 0 3.85.31 5.29.87 2.16.85 3.66 2.17 4.79 4.23 1.12 2.05 1.8 4.93 1.79 8.66v9.98l32.9-3.23v-7.3c.01-13.98-4.02-25.37-11.89-33.2-7.87-7.83-19.32-11.86-33.43-11.85-14.11-.01-25.56 4.01-33.43 11.85-7.87 7.83-11.9 19.23-11.89 33.2v4.05c-.01 11.41 2.34 21.46 8.09 31.3 5.74 9.85 14.74 19.48 27.94 30.65 9.48 8.01 15.51 14.28 19.07 19.78 3.55 5.52 4.77 10.16 4.79 15.66v6.2c0 2.76-.32 5.1-.9 7.01-.88 2.87-2.26 4.74-4.22 6.04-1.96 1.3-4.69 2.06-8.38 2.06-2.45 0-4.5-.34-6.16-.95-2.48-.93-4.15-2.36-5.39-4.6-1.23-2.24-1.95-5.41-1.95-9.56v-16.46l-32.9 3.23v15.12c-.02 13.99 4.17 25.42 12.33 33.24 8.15 7.82 19.98 11.82 34.61 11.81 14.63.01 26.46-3.99 34.61-11.81 8.16-7.82 12.34-19.24 12.33-33.24v-9.44c.01-11.69-2.56-21.88-8.51-31.78z"/></svg>