<?xml version="1.0" encoding="utf-8"?>
<!-- Generator: Adobe Illustrator 24.0.2, SVG Export Plug-In . SVG Version: 6.00 Build 0)  -->
<svg version="1.1" id="Layer_1" xmlns="http://www.w3.org/2000/svg" xmlns:xlink="http://www.w3.org/1999/xlink" x="0px" y="0px"
	 viewBox="0 0 2000 1000" style="enable-background:new 0 0 2000 1000;" xml:space="preserve">
<style type="text/css">
	.st0{fill:#020202;}
	.st1{fill:#CA112A;}
	.st2{fill:#FFFFFF;}
</style>
<rect x="-3308.66" y="-363.19" width="5861.49" height="3775.71"/>
<g>
	<path class="st1" d="M528.8,551.82c3.91-4.22,6.04-9.2,6.12-12.93c-0.03-14.28-10.12-20.94-21.36-16.1
		c-3.31,1.43-6.36,3.25-9.17,5.41c-1.28,0.98-2.5,2.04-3.69,3.16c-0.06,0.05-0.12,0.11-0.17,0.16c-0.49,0.47-0.97,0.95-1.45,1.44
		c-0.21,0.22-0.41,0.41-0.61,0.57c-0.74,0.79-1.32,1.52-1.54,2.07c0,0-1.59-2.19-3.74-4.25c-0.55-0.51-1.12-1-1.68-1.48
		c-4.19-3.55-8.82-6.48-14.23-8.11c-6.48-1.96-13.27,0.91-16.37,6.9c-3.56,6.88-2.2,15.79,3.38,22.19
		c7.05,8.08,15.41,14.59,23.94,20.9l0,0l8.71,6.58l3.4-2.62c6.05-4.4,12.06-8.85,17.74-13.69l0.06-0.04l-0.01,0
		C521.85,558.78,525.44,555.43,528.8,551.82z"/>
	<g>
		<path class="st2" d="M580.81,515.44c-2.24-7.4-5.42-14.37-9.42-20.79v-95.28c0-3.72-0.76-7.29-2.13-10.53
			c-1.37-3.24-3.35-6.15-5.79-8.6l0,0c-2.44-2.44-5.36-4.42-8.59-5.79c-3.24-1.37-6.81-2.13-10.53-2.13s-7.29,0.76-10.53,2.13
			c-4.86,2.06-8.98,5.48-11.89,9.79c-1.46,2.16-2.61,4.54-3.4,7.09c-0.79,2.55-1.22,5.25-1.22,8.04v38.23
			c-0.32-0.15-0.63-0.3-0.96-0.44c-2.52-1.07-5.3-1.65-8.19-1.65c-2.89,0-5.67,0.59-8.19,1.66c-3.59,1.52-6.65,3.99-8.89,7.1
			c-0.66-0.93-1.4-1.8-2.21-2.6v0c-1.9-1.9-4.16-3.43-6.68-4.5c-2.52-1.07-5.3-1.65-8.19-1.65c-2.88,0-5.67,0.59-8.19,1.66
			c-0.32,0.14-0.64,0.28-0.96,0.44v-5.21c0-3.72-0.76-7.29-2.13-10.53c-1.37-3.24-3.35-6.15-5.8-8.59v0
			c-2.44-2.44-5.35-4.42-8.59-5.79c-3.24-1.37-6.81-2.13-10.53-2.13c-3.72,0-7.29,0.76-10.53,2.13c-4.86,2.06-8.98,5.48-11.9,9.79
			c-1.46,2.16-2.61,4.54-3.4,7.09c-0.79,2.55-1.22,5.25-1.22,8.04v100.54c-0.22,2.54-0.34,5.11-0.34,7.7c0,12,2.44,23.46,6.84,33.88
			c6.61,15.63,17.64,28.9,31.53,38.29c13.88,9.38,30.66,14.87,48.67,14.87c12,0,23.47-2.44,33.88-6.84
			c15.63-6.61,28.91-17.64,38.29-31.53c9.38-13.88,14.87-30.66,14.87-48.67C584.51,531.88,583.22,523.42,580.81,515.44z
			 M533.73,389.93c5.65-7.14,14.65-7.3,20.53-0.35c3.11,3.67,4.79,8.03,4.81,12.77c0.06,17.26,0.07,34.53,0.07,51.8v3.16
			c0,6.67,0,13.34,0,20l0,15.56c0,0-0.24-0.54-1.43-1.57c-0.52-0.42-1.04-0.82-1.57-1.21c-2.04-1.43-2.46-1.72-2.55-1.79
			c-0.91-0.58-1.95-1.19-3.15-1.82c-6.44-3.44-13.5-5.2-21.24-5.46v-3.22c-0.03-24.19-0.05-48.39-0.11-72.58
			C529.09,399.64,530.18,394.41,533.73,389.93z M493.12,476.87c0.01-4.09,0.04-8.15,0.13-12.22c0.12-5.41,2.35-10.19,6.49-13.87
			c6.04-5.37,14.5-4.81,19.98,1.31c3.45,3.84,5.06,8.45,5.19,13.55c0.04,1.48,0.06,2.96,0.07,4.44l0.01,0v11.44
			c0,0-15.57,0.87-31.88,16.55L493.12,476.87z M457.04,466.67c0.03-5.59,1.7-10.71,5.68-14.84c6.03-6.24,14.93-6.12,20.79,0.3
			c3.62,3.97,5.31,8.76,5.36,14.05c0.06,6.93,0.05,13.86,0.05,20.79l0.03,11.91c0,0.47,0,0.94,0.01,1.41l0,0.08l0,1.91
			c0,0-0.89,0.84-1.9,1.98c-0.59,0.71-1.16,1.42-1.7,2.15l-0.02,0.02l-0.02,0.02c-2.68,3.61-4.58,7.55-3.38,12.84
			c-8.97-3.49-16.59-2.26-22.93,4.99c-1.79-2.56-1.97-5.37-1.98-8.11C456.97,499.66,456.95,483.16,457.04,466.67z M518.13,561.95
			l-0.06,0.04c-5.68,4.84-11.69,9.28-17.74,13.69l-3.4,2.62l-8.71-6.58l0,0c-8.53-6.31-16.89-12.82-23.94-20.9
			c-5.58-6.4-6.94-15.31-3.38-22.19c3.1-5.99,9.9-8.86,16.37-6.9c5.41,1.64,10.04,4.56,14.23,8.11c0.57,0.48,1.13,0.97,1.68,1.48
			c2.15,2.07,3.74,4.25,3.74,4.25c0.22-0.54,0.8-1.27,1.54-2.07c0.19-0.16,0.39-0.35,0.61-0.57c0.48-0.49,0.96-0.97,1.45-1.44
			c0.06-0.05,0.12-0.11,0.17-0.16c1.18-1.12,2.41-2.17,3.69-3.16c2.81-2.16,5.86-3.99,9.17-5.41c11.24-4.84,21.34,1.82,21.36,16.1
			c-0.08,3.73-2.21,8.72-6.12,12.93C525.44,555.43,521.85,558.78,518.13,561.95L518.13,561.95z M517.58,612.72
			c-44.51,13.06-90.55-18.89-93.96-65.06c-1.23-16.68-0.22-33.43-0.42-50.14c-0.03-2.42,0-4.83,0-7.25c0-17.83-0.01-35.66,0-53.48
			c0-5.37,1.2-10.39,4.57-14.7c5.66-7.25,14.6-7.34,20.35-0.17c3.5,4.36,4.67,9.45,4.66,14.96c-0.02,25.78,0,51.57,0.03,77.35
			c0.01,4.76,0.18,9.51,3.37,13.47c0.73,0.91,0.17,1.73-0.06,2.56c-2.29,8.06-0.55,15.35,4.37,21.92c3.52,4.7,7.96,8.53,12.42,12.32
			c6.35,5.4,12.98,10.43,19.79,15.23l0,0l4.24,3.04l0.89-0.64c0.11-0.06,0.21-0.12,0.33-0.2c1.68-1.21,3.36-2.42,5.04-3.63l0.14-0.1
			l0,0c10.2-7.36,20.25-14.9,28.7-24.34c5.97-6.67,8.14-14.51,5.82-23.27c-2.56-9.65-12.21-15.09-21.87-12.58
			c-5.39,1.4-9.85,4.47-14.19,7.77c-3.86,2.93-5.79,2.88-9.67-0.17c-1.74-1.37-3.35-2.86-4.7-4.66c-2.11-2.8-2.45-5.99-0.67-8.66
			c10.5-15.72,24.2-27.27,43.99-27.21c17.25,0.06,29.84,9.31,35.89,25.39C581.34,549.48,565.25,598.73,517.58,612.72z"/>
		<g>
			<polygon class="st1" points="675.28,542.65 675.28,436.03 652.9,436.03 652.9,563.97 706.73,563.97 706.73,542.65 704.96,542.65 
							"/>
			<path class="st1" d="M752.23,434.25c-9.78-0.01-17.91,3.12-23.53,8.94c-5.62,5.81-8.63,14.18-8.63,24.29v65.04
				c-0.01,10.11,3,18.48,8.63,24.29c5.62,5.82,13.75,8.95,23.53,8.94c9.78,0.01,17.91-3.12,23.53-8.94
				c5.62-5.81,8.64-14.18,8.63-24.29v-65.04c0.01-10.11-3-18.48-8.63-24.29C770.14,437.37,762.01,434.24,752.23,434.25z
				 M742.45,467.66c0-4.37,0.98-7.5,2.58-9.45c0.8-0.98,1.76-1.71,2.94-2.21c1.18-0.5,2.59-0.78,4.26-0.78
				c1.67,0,3.08,0.28,4.26,0.78c1.76,0.76,3.06,1.99,4.02,3.9c0.95,1.9,1.5,4.49,1.5,7.77v64.68c0,4.37-0.98,7.5-2.58,9.45
				c-0.8,0.98-1.76,1.7-2.94,2.21c-1.18,0.5-2.59,0.78-4.26,0.78c-1.67,0-3.08-0.28-4.26-0.78c-1.76-0.76-3.06-1.99-4.02-3.9
				c-0.95-1.9-1.5-4.49-1.5-7.77V467.66z"/>
			<polygon class="st1" points="833.79,521.72 821.11,436.03 798.29,436.03 819.86,563.97 821.36,563.97 847.21,563.97 
				868.77,436.03 846.31,436.03 			"/>
			<polygon class="st1" points="885.52,563.97 942.02,563.97 942.02,543.01 907.9,543.01 907.9,509.59 935.45,509.59 935.45,488.63 
				907.9,488.63 907.9,456.99 942.02,456.99 942.02,436.03 885.52,436.03 			"/>
		</g>
		<g>
			<polygon class="st2" points="1064.48,507.91 1055.18,436.03 1035.36,436.03 1026.07,507.9 1016.62,436.03 993.62,436.03 
				1013.36,563.97 1035.61,563.97 1045.08,499.22 1054.4,563.97 1055.93,563.97 1076.65,563.97 1096.39,436.03 1073.93,436.03 			
				"/>
			<polygon class="st2" points="1113.16,563.97 1169.66,563.97 1169.66,543.01 1135.55,543.01 1135.55,509.59 1163.09,509.59 
				1163.09,488.63 1135.55,488.63 1135.55,456.99 1169.66,456.99 1169.66,436.03 1113.16,436.03 			"/>
			<path class="st2" d="M1237.54,497.07c3.5-1.88,6.21-4.57,8.06-8.02c2.47-4.58,3.5-10.38,3.5-17.48v-2.31
				c0-10.5-2.7-18.88-8.18-24.61c-2.73-2.86-6.12-5.03-10.09-6.47c-3.96-1.44-8.49-2.15-13.54-2.15h-28.07v127.94h29.49
				c5.22,0,9.91-0.71,14.02-2.14c6.16-2.14,11.01-5.95,14.22-11.23c3.22-5.28,4.81-11.96,4.81-19.86v-4.27
				c0-8.35-1.26-15.05-4.18-20.24C1245.28,502.14,1241.89,499.1,1237.54,497.07z M1226.71,474.06c0,2.52-0.23,4.63-0.67,6.34
				c-0.68,2.58-1.75,4.19-3.33,5.29c-1.58,1.09-3.84,1.7-7.03,1.7h-4.09v-30.39l4.98,0c1.88,0,3.42,0.27,4.66,0.76
				c1.85,0.75,3.09,1.91,4.03,3.86c0.93,1.95,1.44,4.72,1.44,8.36V474.06z M1211.6,508.35h5.51c2.34,0,4.26,0.3,5.79,0.85
				c2.29,0.84,3.76,2.15,4.84,4.26c1.06,2.12,1.63,5.14,1.63,9.11v6.93c0,2.51-0.25,4.62-0.72,6.34c-0.72,2.59-1.87,4.27-3.52,5.4
				c-1.65,1.13-3.97,1.76-7.14,1.76h-6.4V508.35z"/>
			<path class="st2" d="M1302.85,488.69c-6.24-5.27-10.06-9.39-12.28-12.94c-2.21-3.56-2.89-6.49-2.91-9.88v-1.6
				c0-3.29,0.78-5.53,2.02-6.91c0.62-0.7,1.37-1.22,2.32-1.59c0.95-0.37,2.1-0.57,3.48-0.57c1.38,0,2.53,0.21,3.48,0.57
				c1.42,0.56,2.41,1.43,3.16,2.78c0.74,1.35,1.18,3.25,1.18,5.71v6.58l21.67-2.12v-4.81c0.01-9.21-2.65-16.71-7.83-21.87
				c-5.18-5.16-12.73-7.81-22.02-7.8c-9.29-0.01-16.84,2.64-22.02,7.8c-5.18,5.16-7.84,12.66-7.83,21.87v2.67
				c-0.01,7.52,1.54,14.13,5.33,20.62c3.78,6.49,9.71,12.83,18.4,20.19c6.25,5.28,10.22,9.41,12.56,13.03
				c2.34,3.63,3.14,6.69,3.16,10.32v4.09c0,1.82-0.21,3.36-0.59,4.62c-0.58,1.89-1.49,3.12-2.78,3.98
				c-1.29,0.86-3.09,1.35-5.52,1.36c-1.62,0-2.96-0.22-4.05-0.62c-1.64-0.61-2.73-1.56-3.55-3.03c-0.81-1.48-1.28-3.56-1.28-6.3
				v-10.84l-21.67,2.13v9.96c-0.01,9.22,2.75,16.74,8.12,21.89c5.37,5.15,13.16,7.79,22.8,7.78c9.63,0.01,17.43-2.63,22.8-7.78
				c5.37-5.15,8.13-12.68,8.12-21.89v-6.22c0.01-7.71-1.69-14.43-5.61-20.95C1317.59,502.38,1311.53,496.04,1302.85,488.69z"/>
			<polygon class="st2" points="1342.05,563.97 1343.82,563.97 1364.43,563.97 1364.43,436.03 1342.05,436.03 			"/>
			<polygon class="st2" points="1379.9,457.35 1399.98,457.35 1399.98,563.97 1422.36,563.97 1422.36,457.35 1442.44,457.35 
				1442.44,436.03 1379.9,436.03 			"/>
			<polygon class="st2" points="1457.91,563.97 1514.41,563.97 1514.41,543.01 1480.29,543.01 1480.29,509.59 1507.84,509.59 
				1507.84,488.63 1480.29,488.63 1480.29,456.99 1514.41,456.99 1514.41,436.03 1457.91,436.03 			"/>
			<path class="st2" d="M1583.97,508.91c-3.92-6.53-9.97-12.86-18.66-20.21c-6.24-5.27-10.06-9.39-12.28-12.94
				c-2.21-3.56-2.89-6.49-2.91-9.88v-1.6c0-3.29,0.78-5.53,2.02-6.91c0.62-0.7,1.37-1.22,2.32-1.59c0.95-0.37,2.1-0.57,3.48-0.57
				c1.38,0,2.53,0.21,3.48,0.57c1.42,0.56,2.41,1.43,3.16,2.78c0.74,1.35,1.18,3.25,1.18,5.71v6.58l21.67-2.12v-4.81
				c0.01-9.21-2.65-16.71-7.83-21.87c-5.18-5.16-12.73-7.81-22.02-7.8c-9.29-0.01-16.84,2.64-22.02,7.8
				c-5.18,5.16-7.84,12.66-7.83,21.87v2.67c-0.01,7.52,1.54,14.13,5.33,20.62c3.78,6.49,9.71,12.83,18.4,20.19
				c6.25,5.28,10.22,9.41,12.56,13.03c2.34,3.63,3.14,6.69,3.16,10.32v4.09c0,1.82-0.21,3.36-0.59,4.62
				c-0.58,1.89-1.49,3.12-2.78,3.98c-1.29,0.86-3.09,1.35-5.52,1.36c-1.62,0-2.96-0.22-4.05-0.62c-1.64-0.61-2.73-1.56-3.55-3.03
				c-0.81-1.48-1.28-3.56-1.28-6.3v-10.84l-21.67,2.13v9.96c-0.01,9.22,2.75,16.74,8.12,21.89c5.37,5.15,13.16,7.79,22.8,7.78
				c9.63,0.01,17.43-2.63,22.8-7.78c5.37-5.15,8.13-12.68,8.12-21.89v-6.22C1589.59,522.14,1587.89,515.43,1583.97,508.91z"/>
		</g>
	</g>
</g>
</svg>
