<svg xmlns="http://www.w3.org/2000/svg" xml:space="preserve" id="Layer_1" x="0" y="0" style="enable-background:new 0 0 2000 1000" version="1.1" viewBox="0 0 2000 1000"><style>.st2{fill:#fff}</style><path d="M580.81 515.44a86.873 86.873 0 0 0-9.42-20.79v-95.28a27.02 27.02 0 0 0-7.92-19.13 27.168 27.168 0 0 0-8.59-5.79c-3.24-1.37-6.81-2.13-10.53-2.13s-7.29.76-10.53 2.13a27.124 27.124 0 0 0-11.89 9.79 26.814 26.814 0 0 0-3.4 7.09c-.79 2.55-1.22 5.25-1.22 8.04v38.23c-.32-.15-.63-.3-.96-.44-2.52-1.07-5.3-1.65-8.19-1.65-2.89 0-5.67.59-8.19 1.66a21.086 21.086 0 0 0-8.89 7.1c-.66-.93-1.4-1.8-2.21-2.6a20.943 20.943 0 0 0-14.87-6.15c-2.88 0-5.67.59-8.19 1.66-.32.14-.64.28-.96.44v-5.21c0-3.72-.76-7.29-2.13-10.53a26.92 26.92 0 0 0-5.8-8.59 27.056 27.056 0 0 0-8.59-5.79 27.02 27.02 0 0 0-10.53-2.13c-3.72 0-7.29.76-10.53 2.13a27.206 27.206 0 0 0-11.9 9.79 26.814 26.814 0 0 0-3.4 7.09c-.79 2.55-1.22 5.25-1.22 8.04v100.54c-.22 2.54-.34 5.11-.34 7.7 0 12 2.44 23.46 6.84 33.88 6.61 15.63 17.64 28.9 31.53 38.29 13.88 9.38 30.66 14.87 48.67 14.87 12 0 23.47-2.44 33.88-6.84 15.63-6.61 28.91-17.64 38.29-31.53 9.38-13.88 14.87-30.66 14.87-48.67.02-8.78-1.27-17.24-3.68-25.22zm-47.08-125.51c5.65-7.14 14.65-7.3 20.53-.35 3.11 3.67 4.79 8.03 4.81 12.77.06 17.26.07 34.53.07 51.8v38.72s-.24-.54-1.43-1.57c-.52-.42-1.04-.82-1.57-1.21-2.04-1.43-2.46-1.72-2.55-1.79a43.22 43.22 0 0 0-3.15-1.82c-6.44-3.44-13.5-5.2-21.24-5.46v-3.22c-.03-24.19-.05-48.39-.11-72.58 0-5.58 1.09-10.81 4.64-15.29zm-40.61 86.94c.01-4.09.04-8.15.13-12.22.12-5.41 2.35-10.19 6.49-13.87 6.04-5.37 14.5-4.81 19.98 1.31 3.45 3.84 5.06 8.45 5.19 13.55.04 1.48.06 2.96.07 4.44h.01v11.44s-15.57.87-31.88 16.55l.01-21.2zm-36.08-10.2c.03-5.59 1.7-10.71 5.68-14.84 6.03-6.24 14.93-6.12 20.79.3 3.62 3.97 5.31 8.76 5.36 14.05.06 6.93.05 13.86.05 20.79l.03 11.91c0 .47 0 .94.01 1.41v1.99s-.89.84-1.9 1.98c-.59.71-1.16 1.42-1.7 2.15l-.02.02-.02.02c-2.68 3.61-4.58 7.55-3.38 12.84-8.97-3.49-16.59-2.26-22.93 4.99-1.79-2.56-1.97-5.37-1.98-8.11-.06-16.51-.08-33.01.01-49.5zm61.09 95.28-.06.04c-5.68 4.84-11.69 9.28-17.74 13.69l-3.4 2.62-8.71-6.58c-8.53-6.31-16.89-12.82-23.94-20.9-5.58-6.4-6.94-15.31-3.38-22.19 3.1-5.99 9.9-8.86 16.37-6.9 5.41 1.64 10.04 4.56 14.23 8.11.57.48 1.13.97 1.68 1.48a36.67 36.67 0 0 1 3.74 4.25c.22-.54.8-1.27 1.54-2.07.19-.16.39-.35.61-.57.48-.49.96-.97 1.45-1.44.06-.05.12-.11.17-.16 1.18-1.12 2.41-2.17 3.69-3.16 2.81-2.16 5.86-3.99 9.17-5.41 11.24-4.84 21.34 1.82 21.36 16.1-.08 3.73-2.21 8.72-6.12 12.93-3.35 3.64-6.94 6.99-10.66 10.16zm-.55 50.77c-44.51 13.06-90.55-18.89-93.96-65.06-1.23-16.68-.22-33.43-.42-50.14-.03-2.42 0-4.83 0-7.25 0-17.83-.01-35.66 0-53.48 0-5.37 1.2-10.39 4.57-14.7 5.66-7.25 14.6-7.34 20.35-.17 3.5 4.36 4.67 9.45 4.66 14.96-.02 25.78 0 51.57.03 77.35.01 4.76.18 9.51 3.37 13.47.73.91.17 1.73-.06 2.56-2.29 8.06-.55 15.35 4.37 21.92 3.52 4.7 7.96 8.53 12.42 12.32 6.35 5.4 12.98 10.43 19.79 15.23l4.24 3.04.89-.64c.11-.06.21-.12.33-.2l5.04-3.63.14-.1c10.2-7.36 20.25-14.9 28.7-24.34 5.97-6.67 8.14-14.51 5.82-23.27-2.56-9.65-12.21-15.09-21.87-12.58-5.39 1.4-9.85 4.47-14.19 7.77-3.86 2.93-5.79 2.88-9.67-.17-1.74-1.37-3.35-2.86-4.7-4.66-2.11-2.8-2.45-5.99-.67-8.66 10.5-15.72 24.2-27.27 43.99-27.21 17.25.06 29.84 9.31 35.89 25.39 14.7 39.01-1.39 88.26-49.06 102.25z" style="fill:#020202"/><path d="M528.8 551.82c3.91-4.22 6.04-9.2 6.12-12.93-.03-14.28-10.12-20.94-21.36-16.1a42.967 42.967 0 0 0-9.17 5.41c-1.28.98-2.5 2.04-3.69 3.16-.06.05-.12.11-.17.16-.49.47-.97.95-1.45 1.44-.21.22-.41.41-.61.57-.74.79-1.32 1.52-1.54 2.07 0 0-1.59-2.19-3.74-4.25-.55-.51-1.12-1-1.68-1.48-4.19-3.55-8.82-6.48-14.23-8.11-6.48-1.96-13.27.91-16.37 6.9-3.56 6.88-2.2 15.79 3.38 22.19 7.05 8.08 15.41 14.59 23.94 20.9l8.71 6.58 3.4-2.62c6.05-4.4 12.06-8.85 17.74-13.69l.06-.04h-.01c3.72-3.2 7.31-6.55 10.67-10.16z" style="fill:#ca112a"/><path d="M675.28 542.65V436.03H652.9v127.94h53.83v-21.32h-1.77zm76.95-108.4c-9.78-.01-17.91 3.12-23.53 8.94-5.62 5.81-8.63 14.18-8.63 24.29v65.04c-.01 10.11 3 18.48 8.63 24.29 5.62 5.82 13.75 8.95 23.53 8.94 9.78.01 17.91-3.12 23.53-8.94 5.62-5.81 8.64-14.18 8.63-24.29v-65.04c.01-10.11-3-18.48-8.63-24.29-5.62-5.82-13.75-8.95-23.53-8.94zm-9.78 33.41c0-4.37.98-7.5 2.58-9.45.8-.98 1.76-1.71 2.94-2.21s2.59-.78 4.26-.78 3.08.28 4.26.78c1.76.76 3.06 1.99 4.02 3.9.95 1.9 1.5 4.49 1.5 7.77v64.68c0 4.37-.98 7.5-2.58 9.45-.8.98-1.76 1.7-2.94 2.21-1.18.5-2.59.78-4.26.78s-3.08-.28-4.26-.78c-1.76-.76-3.06-1.99-4.02-3.9-.95-1.9-1.5-4.49-1.5-7.77v-64.68zm91.34 54.06-12.68-85.69h-22.82l21.57 127.94h27.35l21.56-127.94h-22.46zm51.73 42.25h56.5v-20.96H907.9v-33.42h27.55v-20.96H907.9v-31.64h34.12v-20.96h-56.5zm178.96-56.06-9.3-71.88h-19.82l-9.29 71.87-9.45-71.87h-23l19.74 127.94h22.25l9.47-64.75 9.32 64.75h22.25l19.74-127.94h-22.46zm48.68 56.06h56.5v-20.96h-34.11v-33.42h27.54v-20.96h-27.54v-31.64h34.11v-20.96h-56.5zm124.38-66.9c3.5-1.88 6.21-4.57 8.06-8.02 2.47-4.58 3.5-10.38 3.5-17.48v-2.31c0-10.5-2.7-18.88-8.18-24.61-2.73-2.86-6.12-5.03-10.09-6.47-3.96-1.44-8.49-2.15-13.54-2.15h-28.07v127.94h29.49c5.22 0 9.91-.71 14.02-2.14 6.16-2.14 11.01-5.95 14.22-11.23 3.22-5.28 4.81-11.96 4.81-19.86v-4.27c0-8.35-1.26-15.05-4.18-20.24-2.3-4.09-5.69-7.13-10.04-9.16zm-10.83-23.01c0 2.52-.23 4.63-.67 6.34-.68 2.58-1.75 4.19-3.33 5.29-1.58 1.09-3.84 1.7-7.03 1.7h-4.09V457h4.98c1.88 0 3.42.27 4.66.76 1.85.75 3.09 1.91 4.03 3.86.93 1.95 1.44 4.72 1.44 8.36v4.08zm-15.11 34.29h5.51c2.34 0 4.26.3 5.79.85 2.29.84 3.76 2.15 4.84 4.26 1.06 2.12 1.63 5.14 1.63 9.11v6.93c0 2.51-.25 4.62-.72 6.34-.72 2.59-1.87 4.27-3.52 5.4-1.65 1.13-3.97 1.76-7.14 1.76h-6.4v-34.65zm91.25-19.66c-6.24-5.27-10.06-9.39-12.28-12.94-2.21-3.56-2.89-6.49-2.91-9.88v-1.6c0-3.29.78-5.53 2.02-6.91.62-.7 1.37-1.22 2.32-1.59.95-.37 2.1-.57 3.48-.57s2.53.21 3.48.57c1.42.56 2.41 1.43 3.16 2.78.74 1.35 1.18 3.25 1.18 5.71v6.58l21.67-2.12v-4.81c.01-9.21-2.65-16.71-7.83-21.87s-12.73-7.81-22.02-7.8c-9.29-.01-16.84 2.64-22.02 7.8s-7.84 12.66-7.83 21.87v2.67c-.01 7.52 1.54 14.13 5.33 20.62 3.78 6.49 9.71 12.83 18.4 20.19 6.25 5.28 10.22 9.41 12.56 13.03 2.34 3.63 3.14 6.69 3.16 10.32v4.09c0 1.82-.21 3.36-.59 4.62-.58 1.89-1.49 3.12-2.78 3.98-1.29.86-3.09 1.35-5.52 1.36-1.62 0-2.96-.22-4.05-.62-1.64-.61-2.73-1.56-3.55-3.03-.81-1.48-1.28-3.56-1.28-6.3V524l-21.67 2.13v9.96c-.01 9.22 2.75 16.74 8.12 21.89 5.37 5.15 13.16 7.79 22.8 7.78 9.63.01 17.43-2.63 22.8-7.78 5.37-5.15 8.13-12.68 8.12-21.89v-6.22c.01-7.71-1.69-14.43-5.61-20.95-3.92-6.54-9.98-12.88-18.66-20.23zm39.2 75.28h22.38V436.03h-22.38zm37.85-106.62h20.08v106.62h22.38V457.35h20.08v-21.32h-62.54zm78.01 106.62h56.5v-20.96h-34.12v-33.42h27.55v-20.96h-27.55v-31.64h34.12v-20.96h-56.5zm126.06-55.06c-3.92-6.53-9.97-12.86-18.66-20.21-6.24-5.27-10.06-9.39-12.28-12.94-2.21-3.56-2.89-6.49-2.91-9.88v-1.6c0-3.29.78-5.53 2.02-6.91.62-.7 1.37-1.22 2.32-1.59.95-.37 2.1-.57 3.48-.57s2.53.21 3.48.57c1.42.56 2.41 1.43 3.16 2.78.74 1.35 1.18 3.25 1.18 5.71v6.58l21.67-2.12v-4.81c.01-9.21-2.65-16.71-7.83-21.87s-12.73-7.81-22.02-7.8c-9.29-.01-16.84 2.64-22.02 7.8s-7.84 12.66-7.83 21.87v2.67c-.01 7.52 1.54 14.13 5.33 20.62 3.78 6.49 9.71 12.83 18.4 20.19 6.25 5.28 10.22 9.41 12.56 13.03 2.34 3.63 3.14 6.69 3.16 10.32v4.09c0 1.82-.21 3.36-.59 4.62-.58 1.89-1.49 3.12-2.78 3.98-1.29.86-3.09 1.35-5.52 1.36-1.62 0-2.96-.22-4.05-.62-1.64-.61-2.73-1.56-3.55-3.03-.81-1.48-1.28-3.56-1.28-6.3v-10.84l-21.67 2.13v9.96c-.01 9.22 2.75 16.74 8.12 21.89 5.37 5.15 13.16 7.79 22.8 7.78 9.63.01 17.43-2.63 22.8-7.78 5.37-5.15 8.13-12.68 8.12-21.89v-6.22c.01-7.74-1.69-14.45-5.61-20.97z"/></svg>