<?xml version="1.0" encoding="utf-8"?>
<!-- Generator: Adobe Illustrator 24.0.2, SVG Export Plug-In . SVG Version: 6.00 Build 0)  -->
<svg version="1.1" id="Layer_1" xmlns="http://www.w3.org/2000/svg" xmlns:xlink="http://www.w3.org/1999/xlink" x="0px" y="0px"
	 viewBox="0 0 2000 2000" style="enable-background:new 0 0 2000 2000;" xml:space="preserve">
<style type="text/css">
	.st0{fill:#020202;}
	.st1{fill:#CA112A;}
	.st2{fill:#FFFFFF;}
</style>
<rect x="-441.35" y="-363.19" width="5861.49" height="3775.71"/>
<path class="st2" d="M1376.38,1069.72c-10.1-33.4-24.49-64.91-42.56-93.88V545.53c0-16.78-3.42-32.92-9.61-47.54
	c-6.19-14.64-15.11-27.79-26.15-38.82l-0.02-0.01c-11.04-11.02-24.19-19.96-38.81-26.15c-14.64-6.19-30.76-9.61-47.56-9.61
	c-16.8,0-32.92,3.42-47.56,9.61c-21.95,9.29-40.54,24.74-53.7,44.22c-6.58,9.75-11.8,20.51-15.37,32c-3.59,11.5-5.5,23.73-5.5,36.31
	v172.64c-1.43-0.69-2.87-1.35-4.34-1.98c-11.37-4.81-23.94-7.46-36.97-7.46c-13.04,0-25.6,2.65-36.97,7.48
	c-16.2,6.85-30.03,18.01-40.14,32.06c-2.99-4.18-6.33-8.11-9.98-11.72v-0.02c-8.57-8.58-18.78-15.51-30.16-20.34
	c-11.37-4.81-23.94-7.46-36.97-7.46c-13.03,0-25.6,2.65-36.97,7.48c-1.46,0.61-2.9,1.27-4.32,1.98v-23.51
	c0-16.78-3.42-32.92-9.61-47.54c-6.19-14.64-15.13-27.77-26.18-38.81v-0.01c-11.04-11.04-24.17-19.97-38.81-26.16
	c-14.62-6.19-30.76-9.61-47.54-9.61c-16.8,0-32.92,3.42-47.56,9.61c-21.95,9.29-40.55,24.74-53.72,44.22
	c-6.58,9.75-11.8,20.51-15.37,32c-3.59,11.5-5.5,23.73-5.5,36.31v454.07c-1.01,11.47-1.53,23.07-1.53,34.76
	c0,54.19,11,105.97,30.9,153.02c29.87,70.58,79.67,130.54,142.4,172.93c62.7,42.38,138.48,67.16,219.8,67.15
	c54.21,0,105.98-11,153.02-30.9c70.58-29.87,130.55-79.67,172.93-142.4c42.38-62.7,67.16-138.48,67.15-219.8
	C1393.1,1144,1387.26,1105.76,1376.38,1069.72z M1163.78,502.89c25.5-32.23,66.15-32.95,92.71-1.58
	c14.04,16.58,21.64,36.25,21.7,57.67c0.28,77.97,0.34,155.95,0.34,233.92v14.29c0,30.11-0.01,60.23-0.01,90.34l0.01,70.26
	c0,0-1.07-2.45-6.44-7.08c-2.35-1.88-4.71-3.71-7.09-5.47c-9.2-6.45-11.11-7.79-11.5-8.07c-4.11-2.61-8.82-5.36-14.25-8.21
	c-29.09-15.53-60.99-23.48-95.9-24.65v-14.53c-0.15-109.27-0.23-218.52-0.49-327.77C1142.81,546.77,1147.73,523.15,1163.78,502.89z
	 M980.39,895.54c0.02-18.46,0.17-36.83,0.59-55.19c0.55-24.45,10.62-46.04,29.31-62.66c27.27-24.25,65.5-21.72,90.25,5.91
	c15.56,17.36,22.84,38.18,23.46,61.2c0.18,6.68,0.28,13.37,0.33,20.05l0.06-0.01v51.65c0,0-70.33,3.91-143.99,74.74L980.39,895.54z
	 M817.44,849.46c0.14-25.25,7.67-48.36,25.67-67.01c27.22-28.19,67.43-27.62,93.87,1.35c16.35,17.92,23.98,39.57,24.2,63.44
	c0.28,31.3,0.22,62.6,0.21,93.9l0.12,53.77c0.01,2.12,0.02,4.24,0.03,6.36l-0.02,0.36l0.02,8.63c0,0-4.01,3.81-8.56,8.96
	c-2.65,3.19-5.24,6.41-7.69,9.7l-0.07,0.1l-0.07,0.09c-12.11,16.28-20.68,34.1-15.24,57.99c-40.51-15.77-74.91-10.22-103.54,22.52
	c-8.1-11.57-8.89-24.27-8.94-36.63C817.12,998.48,817.03,923.97,817.44,849.46z M1093.33,1279.78l-0.26,0.2
	c-25.66,21.85-52.81,41.93-80.12,61.81l-15.37,11.85l-39.33-29.7l0.01,0c-38.54-28.49-76.3-57.9-108.12-94.38
	c-25.2-28.89-31.34-69.16-15.25-100.22c14.01-27.07,44.69-40,73.94-31.16c24.45,7.4,45.32,20.6,64.27,36.65
	c2.56,2.18,5.1,4.4,7.6,6.68c9.7,9.33,16.89,19.21,16.89,19.21c1.01-2.45,3.62-5.75,6.97-9.34c0.87-0.71,1.78-1.56,2.74-2.56
	c2.15-2.21,4.32-4.38,6.55-6.5c0.26-0.25,0.52-0.49,0.78-0.72c5.33-5.06,10.88-9.81,16.64-14.25c12.69-9.76,26.46-18.01,41.41-24.45
	c50.76-21.87,96.36,8.2,96.48,72.71c-0.38,16.84-9.98,39.36-27.65,58.39c-15.18,16.34-31.39,31.44-48.23,45.79L1093.33,1279.78z
	 M1090.86,1509.05c-201,58.97-408.96-85.31-424.36-293.81c-5.56-75.32-0.99-150.96-1.92-226.44c-0.13-10.91-0.02-21.83-0.02-32.75
	c0-80.51-0.03-161.02,0.02-241.54c0.01-24.23,5.41-46.92,20.62-66.41c25.56-32.74,65.93-33.13,91.9-0.79
	c15.8,19.67,21.09,42.69,21.07,67.55c-0.1,116.45,0.02,232.89,0.15,349.34c0.03,21.5,0.83,42.93,15.23,60.84
	c3.31,4.12,0.78,7.84-0.28,11.54c-10.34,36.4-2.49,69.31,19.73,99.01c15.89,21.24,35.95,38.53,56.07,55.62
	c28.69,24.37,58.63,47.1,89.38,68.77l-0.02,0l19.13,13.75l4.04-2.88c0.48-0.26,0.96-0.56,1.48-0.92
	c7.59-5.47,15.19-10.92,22.78-16.4l0.65-0.47l-0.01,0c46.04-33.24,91.43-67.28,129.6-109.91c26.95-30.11,36.78-65.52,26.3-105.07
	c-11.54-43.57-55.12-68.13-98.77-56.8c-24.34,6.32-44.47,20.17-64.09,35.08c-17.44,13.24-26.16,13-43.66-0.78
	c-7.87-6.2-15.11-12.92-21.24-21.03c-9.54-12.63-11.07-27.03-3.01-39.09c47.42-71.01,109.29-123.16,198.67-122.87
	c77.89,0.25,134.76,42.07,162.1,114.64C1378.79,1223.45,1306.13,1445.9,1090.86,1509.05z"/>
<path class="st1" d="M1141.52,1234.01c17.67-19.04,27.27-41.55,27.65-58.39c-0.12-64.51-45.72-94.58-96.48-72.71
	c-14.96,6.44-28.72,14.68-41.41,24.45c-5.76,4.45-11.31,9.2-16.64,14.25c-0.26,0.23-0.52,0.48-0.78,0.72
	c-2.22,2.11-4.4,4.29-6.55,6.5c-0.97,1-1.87,1.85-2.74,2.56c-3.36,3.59-5.96,6.88-6.97,9.34c0,0-7.19-9.87-16.89-19.21
	c-2.5-2.28-5.04-4.51-7.6-6.68c-18.94-16.05-39.82-29.24-64.27-36.65c-29.24-8.84-59.93,4.09-73.94,31.16
	c-16.09,31.07-9.95,71.33,15.25,100.22c31.82,36.48,69.58,65.89,108.12,94.38l-0.01,0l39.33,29.7l15.37-11.85
	c27.32-19.87,54.46-39.96,80.12-61.81l0.26-0.2l-0.04,0.01C1110.13,1265.45,1126.34,1250.34,1141.52,1234.01z"/>
</svg>
