<?xml version="1.0" encoding="utf-8"?>
<!-- Generator: Adobe Illustrator 24.0.2, SVG Export Plug-In . SVG Version: 6.00 Build 0)  -->
<svg version="1.1" id="Layer_1" xmlns="http://www.w3.org/2000/svg" xmlns:xlink="http://www.w3.org/1999/xlink" x="0px" y="0px"
	 viewBox="0 0 1500 700" style="enable-background:new 0 0 1500 700;" xml:space="preserve">
<style type="text/css">
	.st0{fill:#FFFFFF;}
</style>
<g>
	<path class="st0" d="M171.65,434.63V302.54h24.72v132.09H171.65z"/>
	<path class="st0" d="M286.57,434.63v-48.68c0-14.15-7.74-24.91-22.45-24.91c-14.15,0-23.78,11.89-23.78,26.04v47.55H217.5v-93.22
		h20.57l1.51,12.64c9.43-9.25,18.87-13.96,30.57-13.96c21.89,0,39.44,16.42,39.44,45.67v48.87H286.57z"/>
	<path class="st0" d="M390.16,366.32c-6.61-6.23-14.15-8.3-23.02-8.3c-10.95,0-16.98,3.4-16.98,9.25c0,6.04,5.47,9.43,17.36,10.19
		c17.55,1.13,39.82,5.1,39.82,29.81c0,16.42-13.4,30.57-40,30.57c-14.72,0-29.44-2.45-43.02-16.6l11.32-16.42
		c6.6,7.36,21.7,12.83,32.08,13.02c8.68,0.19,16.79-4.34,16.79-11.13c0-6.42-5.28-9.06-18.49-9.81c-17.55-1.32-38.5-7.74-38.5-28.87
		c0-21.51,22.27-29.06,39.25-29.06c14.53,0,25.47,2.83,36.23,12.27L390.16,366.32z"/>
	<path class="st0" d="M454.5,315.37v26.42h25.66v19.81h-25.85v40.19c0,8.87,4.91,13.21,12.08,13.21c3.59,0,7.74-1.13,11.13-2.83
		l6.42,19.62c-6.6,2.64-12.08,3.77-19.06,3.96c-20.19,0.76-33.4-10.76-33.4-33.97V361.6h-17.36v-19.81h17.36v-23.97L454.5,315.37z"
		/>
	<path class="st0" d="M571.12,341.6h22.08v93.03h-21.7l-1.13-13.59c-5.28,10.94-19.81,16.23-30.19,16.42
		c-27.55,0.19-47.93-16.79-47.93-49.44c0-32.08,21.32-48.87,48.5-48.69c12.45,0,24.34,5.85,29.63,15.1L571.12,341.6z M515.26,388.02
		c0,17.74,12.27,28.3,27.55,28.3c36.23,0,36.23-56.42,0-56.42C527.53,359.91,515.26,370.28,515.26,388.02z"/>
	<path class="st0" d="M635.46,302.73v131.9h-22.83v-131.9H635.46z"/>
	<path class="st0" d="M678.48,302.73v131.9h-22.83v-131.9H678.48z"/>
	<path class="st0" d="M852.09,367.08c0.75,33.59-20.76,67.55-66.99,67.55c-14.91,0-29.81,0-44.72,0V302.54c14.91,0,29.81,0,44.72,0
		C829.82,302.54,851.33,334.62,852.09,367.08z M750.57,312.16v112.65h34.53c39.25,0,57.36-29.44,56.8-57.74
		c-0.57-27.55-18.68-54.91-56.8-54.91H750.57z"/>
	<path class="st0" d="M870.95,388.21c0-29.63,21.13-48.5,47.36-48.5c26.23,0,47.36,18.87,47.36,48.5
		c0,29.62-21.13,47.74-47.36,47.74C892.09,435.95,870.95,417.84,870.95,388.21z M956.62,388.21c0-24.15-17.17-39.82-38.31-39.82
		c-21.13,0-38.31,15.66-38.31,39.82c0,24.15,17.17,38.68,38.31,38.68C939.45,426.89,956.62,412.37,956.62,388.21z"/>
	<path class="st0" d="M1063.42,421.61c-9.43,9.43-21.7,13.96-33.97,13.96c-26.23,0-47.93-18.12-47.93-47.55
		c0-29.44,20.95-47.55,47.93-47.55c12.27,0,24.53,4.72,33.97,13.96l-6.04,5.85c-7.55-7.55-17.93-11.13-27.93-11.13
		c-21.13,0-38.87,13.77-38.87,38.87c0,25.1,17.74,38.87,38.87,38.87c10,0,20.19-3.96,27.74-11.51L1063.42,421.61z"/>
	<path class="st0" d="M1103.61,313.3v28.12h31.7v7.74h-31.7v56.8c0,12.64,2.64,21.51,17.17,21.51c4.53,0,9.62-1.51,14.34-3.78
		l3.21,7.55c-5.85,2.83-11.7,4.72-17.55,4.72c-19.81,0-26.23-11.7-26.23-30v-56.8h-19.81v-7.74h19.81v-27.17L1103.61,313.3z"/>
	<path class="st0" d="M1152.3,388.21c0-29.63,21.13-48.5,47.36-48.5c26.23,0,47.36,18.87,47.36,48.5
		c0,29.62-21.13,47.74-47.36,47.74C1173.43,435.95,1152.3,417.84,1152.3,388.21z M1237.97,388.21c0-24.15-17.17-39.82-38.31-39.82
		s-38.31,15.66-38.31,39.82c0,24.15,17.17,38.68,38.31,38.68S1237.97,412.37,1237.97,388.21z"/>
	<path class="st0" d="M1277.03,341.41l0.38,16.61c5.85-12.64,19.06-17.55,30.95-17.55c6.98-0.19,13.77,1.7,20,5.47l-4.15,7.55
		c-4.91-3.02-10.38-4.34-15.85-4.34c-17.36,0.19-30.76,14.15-30.76,31.14v54.35h-9.25v-93.22H1277.03z"/>
</g>
</svg>
