<svg xmlns="http://www.w3.org/2000/svg" xml:space="preserve" style="enable-background:new 0 0 1500 1500" viewBox="0 0 1500 1500"><path d="M1259.88 382.4v735.2c0 78.55-63.73 142.28-142.28 142.28H382.4c-78.59 0-142.28-63.73-142.28-142.28v-85.02h876.05c29.41 0 53.24-23.84 53.24-53.24 0-29.41-23.84-53.24-53.24-53.24H240.12V803.22h716.32c29.41 0 53.24-23.84 53.24-53.24 0-29.41-23.84-53.24-53.24-53.24H240.12V573.87h577.07c29.41 0 53.24-23.84 53.24-53.24 0-29.41-23.84-53.24-53.24-53.24H240.12V382.4c0-78.59 63.69-142.28 142.28-142.28h735.2c78.55 0 142.28 63.69 142.28 142.28z" style="fill:#fff"/></svg>