<?xml version="1.0" encoding="utf-8"?>
<!-- Generator: Adobe Illustrator 24.0.2, SVG Export Plug-In . SVG Version: 6.00 Build 0)  -->
<svg version="1.1" id="Layer_1" xmlns="http://www.w3.org/2000/svg" xmlns:xlink="http://www.w3.org/1999/xlink" x="0px" y="0px"
	 viewBox="0 0 1500 1500" style="enable-background:new 0 0 1500 1500;" xml:space="preserve">
<style type="text/css">
	.st0{fill:#FFFFFF;}
</style>
<g>
	<path class="st0" d="M1259.88,382.4v735.2c0,78.55-63.73,142.28-142.28,142.28H382.4c-78.59,0-142.28-63.73-142.28-142.28v-85.02
		h876.05c29.41,0,53.24-23.84,53.24-53.24c0-29.41-23.84-53.24-53.24-53.24H240.12V803.22h716.32c29.41,0,53.24-23.84,53.24-53.24
		c0-29.41-23.84-53.24-53.24-53.24H240.12V573.87h577.07c29.41,0,53.24-23.84,53.24-53.24c0-29.41-23.84-53.24-53.24-53.24H240.12
		V382.4c0-78.59,63.69-142.28,142.28-142.28h735.2C1196.15,240.12,1259.88,303.81,1259.88,382.4z"/>
</g>
</svg>
