<svg xmlns="http://www.w3.org/2000/svg" xml:space="preserve" id="Layer_1" x="0" y="0" style="enable-background:new 0 0 1500 700" version="1.1" viewBox="0 0 1500 700"><style>.st0{fill:#fff}</style><path d="M171.65 434.63V302.54h24.72v132.09h-24.72zm114.92 0v-48.68c0-14.15-7.74-24.91-22.45-24.91-14.15 0-23.78 11.89-23.78 26.04v47.55H217.5v-93.22h20.57l1.51 12.64c9.43-9.25 18.87-13.96 30.57-13.96 21.89 0 39.44 16.42 39.44 45.67v48.87h-23.02zm103.59-68.31c-6.61-6.23-14.15-8.3-23.02-8.3-10.95 0-16.98 3.4-16.98 9.25 0 6.04 5.47 9.43 17.36 10.19 17.55 1.13 39.82 5.1 39.82 29.81 0 16.42-13.4 30.57-40 30.57-14.72 0-29.44-2.45-43.02-16.6l11.32-16.42c6.6 7.36 21.7 12.83 32.08 13.02 8.68.19 16.79-4.34 16.79-11.13 0-6.42-5.28-9.06-18.49-9.81-17.55-1.32-38.5-7.74-38.5-28.87 0-21.51 22.27-29.06 39.25-29.06 14.53 0 25.47 2.83 36.23 12.27l-12.84 15.08zm64.34-50.95v26.42h25.66v19.81h-25.85v40.19c0 8.87 4.91 13.21 12.08 13.21 3.59 0 7.74-1.13 11.13-2.83l6.42 19.62c-6.6 2.64-12.08 3.77-19.06 3.96-20.19.76-33.4-10.76-33.4-33.97V361.6h-17.36v-19.81h17.36v-23.97l23.02-2.45zm116.62 26.23h22.08v93.03h-21.7l-1.13-13.59c-5.28 10.94-19.81 16.23-30.19 16.42-27.55.19-47.93-16.79-47.93-49.44 0-32.08 21.32-48.87 48.5-48.69 12.45 0 24.34 5.85 29.63 15.1l.74-12.83zm-55.86 46.42c0 17.74 12.27 28.3 27.55 28.3 36.23 0 36.23-56.42 0-56.42-15.28.01-27.55 10.38-27.55 28.12zm120.2-85.29v131.9h-22.83v-131.9h22.83zm43.02 0v131.9h-22.83v-131.9h22.83zm173.61 64.35c.75 33.59-20.76 67.55-66.99 67.55h-44.72V302.54h44.72c44.72 0 66.23 32.08 66.99 64.54zm-101.52-54.92v112.65h34.53c39.25 0 57.36-29.44 56.8-57.74-.57-27.55-18.68-54.91-56.8-54.91h-34.53zm120.38 76.05c0-29.63 21.13-48.5 47.36-48.5s47.36 18.87 47.36 48.5c0 29.62-21.13 47.74-47.36 47.74-26.22 0-47.36-18.11-47.36-47.74zm85.67 0c0-24.15-17.17-39.82-38.31-39.82-21.13 0-38.31 15.66-38.31 39.82 0 24.15 17.17 38.68 38.31 38.68s38.31-14.52 38.31-38.68zm106.8 33.4c-9.43 9.43-21.7 13.96-33.97 13.96-26.23 0-47.93-18.12-47.93-47.55 0-29.44 20.95-47.55 47.93-47.55 12.27 0 24.53 4.72 33.97 13.96l-6.04 5.85c-7.55-7.55-17.93-11.13-27.93-11.13-21.13 0-38.87 13.77-38.87 38.87 0 25.1 17.74 38.87 38.87 38.87 10 0 20.19-3.96 27.74-11.51l6.23 6.23zm40.19-108.31v28.12h31.7v7.74h-31.7v56.8c0 12.64 2.64 21.51 17.17 21.51 4.53 0 9.62-1.51 14.34-3.78l3.21 7.55c-5.85 2.83-11.7 4.72-17.55 4.72-19.81 0-26.23-11.7-26.23-30v-56.8h-19.81v-7.74h19.81v-27.17l9.06-.95zm48.69 74.91c0-29.63 21.13-48.5 47.36-48.5s47.36 18.87 47.36 48.5c0 29.62-21.13 47.74-47.36 47.74s-47.36-18.11-47.36-47.74zm85.67 0c0-24.15-17.17-39.82-38.31-39.82s-38.31 15.66-38.31 39.82c0 24.15 17.17 38.68 38.31 38.68s38.31-14.52 38.31-38.68zm39.06-46.8.38 16.61c5.85-12.64 19.06-17.55 30.95-17.55 6.98-.19 13.77 1.7 20 5.47l-4.15 7.55c-4.91-3.02-10.38-4.34-15.85-4.34-17.36.19-30.76 14.15-30.76 31.14v54.35h-9.25v-93.22h8.68z"/></svg>