<?xml version="1.0" encoding="utf-8"?>
<!-- Generator: Adobe Illustrator 24.0.2, SVG Export Plug-In . SVG Version: 6.00 Build 0)  -->
<svg version="1.1" xmlns="http://www.w3.org/2000/svg" xmlns:xlink="http://www.w3.org/1999/xlink" x="0px" y="0px"
	 viewBox="0 0 1500 700" style="enable-background:new 0 0 1500 700;" xml:space="preserve">
<style type="text/css">
	.st0{fill:#FC0036;}
	.st1{fill:#FFFFFF;}
</style>
<g id="Layer_2">
</g>
<g id="Layer_1">
	<g>
		<path d="M253.77,255.53v156.73h97.62v33.08H217.98V255.53H253.77z"/>
		<rect x="374.17" y="311.12" width="33.09" height="134.23"/>
		<path d="M410.24,273.98c0,25.75-39.05,25.75-39.05,0C371.19,248.21,410.24,248.21,410.24,273.98z"/>
		<path d="M535.51,445.35v-69.96c0-20.34-11.12-35.79-32.27-35.79c-20.34,0-34.17,17.08-34.17,37.42v68.33h-32.81V311.39h29.56
			l2.17,18.17c13.56-13.29,27.12-20.07,43.93-20.07c31.46,0,56.67,23.59,56.67,65.62v70.23H535.51z"/>
		<path d="M629.33,255.8v109.55l45.01-53.69h39.59v1.9l-54.5,61.01l62.1,68.33v2.44h-39.86l-52.33-60.47v60.47h-33.08V255.8H629.33z
			"/>
		<path d="M883.68,307.33c0,19.52-11.93,34.71-30.91,40.67c23.86,6.51,37.42,25.76,37.42,47.72c0,39.05-36.34,49.62-68.87,49.62
			c-27.66,0-50.17,0-77.82,0V255.53c27.39,0,50.17,0,77.82,0C853.31,255.53,883.68,271.26,883.68,307.33z M758.14,341.49h65.08
			c22.78,0,46.64-7.05,46.64-34.17c0-27.66-24.95-39.32-48.54-39.32h-63.18V341.49z M758.14,431.25h63.18
			c23.86,0,54.5-5.69,54.5-35.79c-0.27-29.56-27.12-40.13-52.6-40.13c-22.78,0-42.3,0-65.08,0V431.25z"/>
		<path d="M936.02,255.53v189.81h-13.29V255.53H936.02z"/>
		<path d="M990.79,267.74c0,14.1-21.42,14.1-21.42,0C969.37,253.64,990.79,253.64,990.79,267.74z M973.17,310.85v134.49h13.29
			V310.85H973.17z"/>
		<path d="M1037.43,311.39v23.86c10.31-18.44,29.01-26.03,47.72-26.3c35.79,0,60.47,21.96,60.47,59.11v77.28h-13.29v-77.01
			c0-30.37-18.71-46.64-47.73-46.37c-27.66,0.27-46.91,21.15-46.91,48.81v74.57h-13.29V311.39H1037.43z"/>
		<path d="M1193.35,255.53v114.43l63.18-58.57h17.62v0.54l-67.79,62.64l75.65,69.96v0.81h-16.81l-71.86-65.62v65.62h-13.02V255.53
			H1193.35z"/>
	</g>
</g>
</svg>
