<svg xmlns="http://www.w3.org/2000/svg" xml:space="preserve" style="enable-background:new 0 0 1500 700" viewBox="0 0 1500 700"><style>.st1{fill:#fff}</style><g id="Layer_1"><path d="M543.7 278.86v118.03h73.51v24.91H516.74V278.86h26.96zm90.66 41.86h24.92v101.09h-24.92zm27.17-27.97c0 19.39-29.41 19.39-29.41 0 0-19.41 29.41-19.41 29.41 0zm94.34 129.05v-52.69c0-15.32-8.37-26.96-24.3-26.96-15.32 0-25.73 12.87-25.73 28.18v51.46h-24.71V320.92h22.26l1.63 13.68c10.21-10.01 20.42-15.11 33.08-15.11 23.69 0 42.68 17.77 42.68 49.42v52.89h-24.91zm70.66-142.74v82.5l33.9-40.43h29.81v1.43l-41.05 45.95 46.76 51.46v1.84h-30.02l-39.41-45.54v45.54h-24.91V279.06h24.92zm191.55 38.8c0 14.7-8.98 26.14-23.28 30.63 17.97 4.9 28.18 19.4 28.18 35.94 0 29.41-27.36 37.37-51.87 37.37H912.5V278.86h58.61c24.1 0 46.97 11.84 46.97 39zm-94.55 25.73h49.01c17.15 0 35.12-5.31 35.12-25.73 0-20.83-18.79-29.61-36.55-29.61h-47.58v55.34zm0 67.6h47.58c17.97 0 41.05-4.29 41.05-26.96-.2-22.26-20.42-30.22-39.62-30.22h-49.01v57.18zm133.96-132.33V421.8h-10.01V278.86h10.01zm41.25 9.19c0 10.62-16.13 10.62-16.13 0s16.13-10.62 16.13 0zm-13.27 32.47V421.8h10.01V320.52h-10.01zm48.4.4v17.97c7.76-13.89 21.85-19.6 35.94-19.81 26.96 0 45.54 16.54 45.54 44.52v58.2h-10.01v-58c0-22.87-14.09-35.12-35.94-34.92-20.83.2-35.33 15.93-35.33 36.76v56.16h-10.01V320.92h9.81zm117.42-42.06v86.18l47.58-44.11h13.27v.41l-51.05 47.17 56.97 52.69v.61h-12.66l-54.11-49.42v49.42h-9.8V278.86h9.8zM382.59 350l-42.43-42.43-15.47-15.47-42.43-42.43L181.93 350l100.33 100.33 42.43-42.43 15.47-15.47z" class="st1"/><path d="m367.12 249.67-37.57 37.57 15.47 15.47 22.1-22.1L436.51 350l-69.39 69.39-22.1-22.1-15.47 15.47 37.57 37.57L467.45 350z" class="st1"/></g></svg>