<?xml version="1.0" encoding="utf-8"?>
<!-- Generator: Adobe Illustrator 24.0.2, SVG Export Plug-In . SVG Version: 6.00 Build 0)  -->
<svg version="1.1" xmlns="http://www.w3.org/2000/svg" xmlns:xlink="http://www.w3.org/1999/xlink" x="0px" y="0px"
	 viewBox="0 0 1500 700" style="enable-background:new 0 0 1500 700;" xml:space="preserve">
<style type="text/css">
	.st0{fill:#FC0036;}
	.st1{fill:#FFFFFF;}
</style>
<g id="Layer_2">
</g>
<g id="Layer_1">
	<g>
		<g>
			<path d="M543.7,278.86v118.03h73.51v24.91H516.74V278.86H543.7z"/>
			<rect x="634.36" y="320.72" width="24.92" height="101.09"/>
			<path d="M661.53,292.75c0,19.39-29.41,19.39-29.41,0C632.12,273.34,661.53,273.34,661.53,292.75z"/>
			<path d="M755.87,421.8v-52.69c0-15.32-8.37-26.96-24.3-26.96c-15.32,0-25.73,12.87-25.73,28.18v51.46h-24.71V320.92h22.26
				l1.63,13.68c10.21-10.01,20.42-15.11,33.08-15.11c23.69,0,42.68,17.77,42.68,49.42v52.89H755.87z"/>
			<path d="M826.53,279.06v82.5l33.9-40.43h29.81v1.43l-41.05,45.95l46.76,51.46v1.84h-30.02l-39.41-45.54v45.54h-24.91V279.06
				H826.53z"/>
			<path d="M1018.08,317.86c0,14.7-8.98,26.14-23.28,30.63c17.97,4.9,28.18,19.4,28.18,35.94c0,29.41-27.36,37.37-51.87,37.37
				c-20.83,0-37.78,0-58.61,0V278.86c20.63,0,37.78,0,58.61,0C995.21,278.86,1018.08,290.7,1018.08,317.86z M923.53,343.59h49.01
				c17.15,0,35.12-5.31,35.12-25.73c0-20.83-18.79-29.61-36.55-29.61h-47.58V343.59z M923.53,411.19h47.58
				c17.97,0,41.05-4.29,41.05-26.96c-0.2-22.26-20.42-30.22-39.62-30.22c-17.15,0-31.86,0-49.01,0V411.19z"/>
			<path d="M1057.49,278.86V421.8h-10.01V278.86H1057.49z"/>
			<path d="M1098.74,288.05c0,10.62-16.13,10.62-16.13,0S1098.74,277.43,1098.74,288.05z M1085.47,320.52V421.8h10.01V320.52
				H1085.47z"/>
			<path d="M1133.87,320.92v17.97c7.76-13.89,21.85-19.6,35.94-19.81c26.96,0,45.54,16.54,45.54,44.52v58.2h-10.01v-58
				c0-22.87-14.09-35.12-35.94-34.92c-20.83,0.2-35.33,15.93-35.33,36.76v56.16h-10.01V320.92H1133.87z"/>
			<path d="M1251.29,278.86v86.18l47.58-44.11h13.27v0.41l-51.05,47.17l56.97,52.69v0.61h-12.66l-54.11-49.42v49.42h-9.8V278.86
				H1251.29z"/>
		</g>
		<g>
			<polygon points="382.59,350 340.16,307.57 324.69,292.1 282.26,249.67 181.93,350 282.26,450.33 324.69,407.9 340.16,392.43 			
				"/>
			<polygon points="367.12,249.67 329.55,287.24 329.55,287.24 345.02,302.71 367.12,280.61 436.51,350 367.12,419.39 
				345.02,397.29 329.55,412.76 329.55,412.76 367.12,450.33 467.45,350 			"/>
		</g>
	</g>
</g>
</svg>
