<svg xmlns="http://www.w3.org/2000/svg" xml:space="preserve" style="enable-background:new 0 0 1500 700" viewBox="0 0 1500 700"><path d="M253.77 255.53v156.73h97.62v33.08H217.98V255.53h35.79zm120.4 55.59h33.09v134.23h-33.09zm36.07-37.14c0 25.75-39.05 25.75-39.05 0 0-25.77 39.05-25.77 39.05 0zm125.27 171.37v-69.96c0-20.34-11.12-35.79-32.27-35.79-20.34 0-34.17 17.08-34.17 37.42v68.33h-32.81V311.39h29.56l2.17 18.17c13.56-13.29 27.12-20.07 43.93-20.07 31.46 0 56.67 23.59 56.67 65.62v70.23h-33.08zm93.82-189.55v109.55l45.01-53.69h39.59v1.9l-54.5 61.01 62.1 68.33v2.44h-39.86l-52.33-60.47v60.47h-33.08V255.8h33.07zm254.35 51.53c0 19.52-11.93 34.71-30.91 40.67 23.86 6.51 37.42 25.76 37.42 47.72 0 39.05-36.34 49.62-68.87 49.62H743.5V255.53h77.82c31.99 0 62.36 15.73 62.36 51.8zm-125.54 34.16h65.08c22.78 0 46.64-7.05 46.64-34.17 0-27.66-24.95-39.32-48.54-39.32h-63.18v73.49zm0 89.76h63.18c23.86 0 54.5-5.69 54.5-35.79-.27-29.56-27.12-40.13-52.6-40.13h-65.08v75.92zm177.88-175.72v189.81h-13.29V255.53h13.29zm54.77 12.21c0 14.1-21.42 14.1-21.42 0s21.42-14.1 21.42 0zm-17.62 43.11v134.49h13.29V310.85h-13.29zm64.26.54v23.86c10.31-18.44 29.01-26.03 47.72-26.3 35.79 0 60.47 21.96 60.47 59.11v77.28h-13.29v-77.01c0-30.37-18.71-46.64-47.73-46.37-27.66.27-46.91 21.15-46.91 48.81v74.57h-13.29V311.39h13.03zm155.92-55.86v114.43l63.18-58.57h17.62v.54l-67.79 62.64 75.65 69.96v.81h-16.81l-71.86-65.62v65.62h-13.02V255.53h13.03z" style="fill:#fff"/></svg>