<svg xmlns="http://www.w3.org/2000/svg" width="17" height="16" fill="none" viewBox="0 0 17 16"><path fill="#92A0B3" d="M8.75 0C4.194 0 .5 3.675.5 8.204c0 3.625 2.365 6.696 5.642 7.782a.72.72 0 0 0 .14.014c.306 0 .424-.218.424-.407 0-.197-.007-.71-.011-1.397-.31.068-.586.097-.833.097-1.587 0-1.948-1.197-1.948-1.197-.376-.946-.917-1.2-.917-1.2-.718-.489-.004-.503.052-.503h.003c.829.071 1.264.85 1.264.85.412.7.965.896 1.458.896.387 0 .737-.121.943-.214.074-.529.287-.89.523-1.096-1.83-.208-3.757-.911-3.757-4.054 0-.896.32-1.629.847-2.2-.084-.207-.368-1.043.081-2.171 0 0 .06-.018.185-.018.298 0 .972.11 2.084.86a7.955 7.955 0 0 1 2.066-.275c.7.004 1.407.093 2.066.275 1.113-.75 1.787-.86 2.085-.86.125 0 .184.018.184.018.45 1.128.166 1.964.081 2.171.527.575.847 1.307.847 2.2 0 3.15-1.93 3.843-3.767 4.046.294.254.56.754.56 1.518 0 1.097-.012 1.982-.012 2.25 0 .193.115.411.42.411a.735.735 0 0 0 .148-.014C14.639 14.9 17 11.825 17 8.204 17 3.675 13.306 0 8.75 0Z"/></svg>