<svg xmlns="http://www.w3.org/2000/svg" width="180" height="24" class="capacitor-logo" viewBox="149 350 1200 1"><path d="M399.1 401.77V295.65h19.86v106.12H399.1zm92.32 0v-39.11c0-11.37-6.21-20.01-18.04-20.01-11.37 0-19.1 9.55-19.1 20.92v38.2h-18.34v-74.89h16.52l1.21 10.16c7.58-7.43 15.16-11.22 24.56-11.22 17.58 0 31.68 13.19 31.68 36.69v39.26h-18.49zm83.22-54.88c-5.31-5-11.37-6.67-18.5-6.67-8.79 0-13.64 2.73-13.64 7.43 0 4.85 4.4 7.58 13.95 8.19 14.1.91 31.99 4.09 31.99 23.95 0 13.19-10.76 24.56-32.14 24.56-11.82 0-23.65-1.97-34.56-13.34l9.1-13.19c5.31 5.91 17.43 10.31 25.77 10.46 6.97.15 13.49-3.49 13.49-8.94 0-5.15-4.24-7.28-14.86-7.88-14.1-1.06-30.93-6.22-30.93-23.19 0-17.28 17.89-23.35 31.53-23.35 11.67 0 20.46 2.27 29.11 9.85l-10.31 12.12zm51.69-40.93v21.22h20.62v15.92h-20.77v32.29c0 7.13 3.94 10.61 9.7 10.61 2.88 0 6.22-.91 8.94-2.27l5.15 15.77c-5.31 2.12-9.7 3.03-15.31 3.18-16.22.61-26.83-8.64-26.83-27.29V343.1h-13.95v-15.92h13.95v-19.25l18.5-1.97zm93.69 21.07h17.74v74.74h-17.43l-.91-10.91c-4.24 8.79-15.92 13.04-24.26 13.19-22.13.15-38.51-13.49-38.51-39.72 0-25.77 17.13-39.26 38.96-39.11 10.01 0 19.56 4.7 23.8 12.13l.61-10.32zm-44.88 37.3c0 14.25 9.85 22.74 22.13 22.74 29.11 0 29.11-45.33 0-45.33-12.27 0-22.13 8.34-22.13 22.59zm96.57-68.53v105.97h-18.34V295.8h18.34zm34.56 0v105.97h-18.34V295.8h18.34zm139.47 51.7c.61 26.98-16.68 54.27-53.82 54.27h-35.93V295.65h35.93c35.93 0 53.21 25.77 53.82 51.85zm-81.56-44.12v90.5h27.74c31.53 0 46.08-23.65 45.63-46.39-.45-22.13-15.01-44.12-45.63-44.12h-27.74zm96.71 61.1c0-23.8 16.98-38.96 38.05-38.96 21.07 0 38.05 15.16 38.05 38.96s-16.98 38.35-38.05 38.35c-21.07 0-38.05-14.55-38.05-38.35zm68.83 0c0-19.4-13.79-31.99-30.77-31.99s-30.77 12.58-30.77 31.99 13.8 31.08 30.77 31.08 30.77-11.68 30.77-31.08zm85.8 26.83c-7.58 7.58-17.43 11.22-27.29 11.22-21.07 0-38.5-14.55-38.5-38.2 0-23.65 16.83-38.2 38.5-38.2 9.85 0 19.71 3.79 27.29 11.22l-4.85 4.7c-6.06-6.06-14.4-8.94-22.44-8.94-16.98 0-31.23 11.07-31.23 31.23s14.25 31.23 31.23 31.23c8.04 0 16.22-3.18 22.29-9.25l5 4.99zm32.28-87.02v22.59h25.47v6.22h-25.47v45.63c0 10.16 2.12 17.28 13.8 17.28 3.64 0 7.73-1.21 11.52-3.03l2.58 6.06c-4.7 2.27-9.4 3.79-14.1 3.79-15.92 0-21.07-9.4-21.07-24.1V333.1h-15.92v-6.22h15.92v-21.83l7.27-.76zm39.12 60.19c0-23.8 16.98-38.96 38.05-38.96 21.07 0 38.05 15.16 38.05 38.96s-16.98 38.35-38.05 38.35c-21.08 0-38.05-14.55-38.05-38.35zm68.82 0c0-19.4-13.79-31.99-30.77-31.99s-30.77 12.58-30.77 31.99 13.8 31.08 30.77 31.08 30.77-11.68 30.77-31.08zm31.38-37.6.3 13.34c4.7-10.16 15.31-14.1 24.86-14.1 5.61-.15 11.07 1.36 16.07 4.4l-3.33 6.06c-3.94-2.43-8.34-3.49-12.73-3.49-13.95.15-24.71 11.37-24.71 25.01v43.66h-7.43v-74.89h6.97zm-950.76-36.25v118.75c0 12.69-10.29 22.98-22.98 22.98H194.63c-12.69 0-22.98-10.29-22.98-22.98v-13.73h141.5c4.75 0 8.6-3.85 8.6-8.6s-3.85-8.6-8.6-8.6h-141.5V358.6h115.7a8.6 8.6 0 0 0 8.6-8.6 8.6 8.6 0 0 0-8.6-8.6h-115.7v-19.85h93.21c4.75 0 8.6-3.85 8.6-8.6s-3.85-8.6-8.6-8.6h-93.21v-13.73c0-12.69 10.29-22.98 22.98-22.98h118.75c12.68.01 22.98 10.29 22.98 22.99z"/></svg>