<svg xmlns="http://www.w3.org/2000/svg" width="19" height="16" fill="none" viewBox="0 0 19 16"><path fill="#92A0B3" d="M18.5 1.896a6.99 6.99 0 0 1-2.12.637c.768-.5 1.345-1.294 1.624-2.233a6.975 6.975 0 0 1-2.346.98 3.738 3.738 0 0 0-1.23-.948A3.4 3.4 0 0 0 12.962 0C10.92 0 9.269 1.808 9.269 4.037c-.001.31.03.62.096.921a9.707 9.707 0 0 1-4.208-1.217A10.794 10.794 0 0 1 1.752.738a4.329 4.329 0 0 0-.502 2.029c0 1.4.657 2.637 1.65 3.362a3.379 3.379 0 0 1-1.68-.504v.05c0 1.958 1.276 3.587 2.963 3.958a3.424 3.424 0 0 1-.972.142c-.234 0-.466-.025-.695-.075.47 1.604 1.835 2.77 3.452 2.804-1.314 1.126-2.928 1.734-4.587 1.73a6.837 6.837 0 0 1-.881-.059C2.188 15.373 4.15 16.006 6.153 16c6.8 0 10.516-6.154 10.516-11.492 0-.175-.004-.35-.011-.52A7.935 7.935 0 0 0 18.5 1.895Z"/></svg>