<?xml version="1.0" standalone="no"?>
<!DOCTYPE svg PUBLIC "-//W3C//DTD SVG 20010904//EN"
 "http://www.w3.org/TR/2001/REC-SVG-20010904/DTD/svg10.dtd">
<svg version="1.0" xmlns="http://www.w3.org/2000/svg"
 width="4250.000000pt" height="4250.000000pt" viewBox="0 0 4250.000000 4250.000000"
 preserveAspectRatio="xMidYMid meet">
<metadata>
Created by potrace 1.14, written by Peter Selinger 2001-2017
</metadata>
<g transform="translate(0.000000,4250.000000) scale(0.100000,-0.100000)"
fill="#000000" stroke="none">
<path d="M5817 42494 c-1 -1 -67 -4 -147 -8 -177 -8 -328 -19 -410 -31 -14 -2
-50 -7 -80 -10 -96 -11 -301 -45 -405 -66 -55 -12 -108 -23 -118 -25 -71 -13
-298 -72 -427 -111 -462 -137 -937 -347 -1340 -591 -162 -98 -528 -346 -550
-372 -3 -3 -34 -28 -70 -55 -36 -27 -67 -52 -70 -55 -3 -3 -50 -43 -105 -90
-222 -188 -484 -448 -654 -650 -25 -29 -50 -58 -56 -64 -16 -18 -186 -234
-239 -306 -74 -99 -265 -392 -333 -510 -261 -453 -433 -854 -573 -1335 -18
-60 -34 -121 -37 -134 -2 -14 -6 -27 -8 -31 -3 -5 -43 -173 -60 -250 -6 -32
-44 -237 -49 -270 -3 -19 -8 -46 -10 -60 -6 -32 -24 -170 -31 -235 -15 -141
-21 -216 -31 -360 -3 -49 -6 -936 -6 -1970 l-1 -1880 1199 -2 c660 -2 6124 -4
12144 -6 6020 -1 10954 -5 10965 -8 11 -4 45 -10 75 -14 78 -10 251 -51 345
-82 630 -205 1139 -684 1380 -1298 42 -107 76 -214 91 -285 3 -14 9 -41 14
-60 11 -41 28 -150 38 -235 9 -80 9 -382 0 -470 -8 -73 -12 -97 -28 -180 -6
-27 -12 -59 -14 -70 -15 -79 -77 -275 -111 -351 -142 -322 -275 -518 -506
-746 -218 -214 -484 -384 -769 -490 -117 -43 -336 -103 -419 -113 -30 -4 -62
-8 -71 -10 -9 -2 -54 -6 -101 -10 -46 -4 -5517 -7 -12156 -7 l-12073 0 -1 -24
c0 -31 0 -5070 0 -5086 1 -10 3003 -13 14974 -14 8234 0 15013 -4 15062 -8 50
-4 97 -9 105 -11 8 -2 38 -6 65 -10 28 -3 95 -17 150 -31 55 -14 107 -27 115
-29 84 -19 266 -93 399 -162 205 -107 368 -227 541 -402 147 -148 173 -179
274 -331 113 -169 160 -260 245 -475 22 -54 76 -241 86 -295 16 -89 26 -157
34 -215 10 -72 8 -480 -2 -525 -3 -14 -13 -65 -21 -115 -127 -738 -646 -1376
-1351 -1662 -86 -35 -244 -88 -295 -98 -8 -2 -35 -8 -60 -14 -25 -5 -58 -12
-75 -15 -16 -2 -49 -7 -73 -11 -23 -4 -54 -9 -70 -13 -15 -3 -6792 -7 -15061
-9 -8269 -2 -15036 -5 -15039 -8 -3 -3 -6 -4963 -3 -5095 l1 -25 18317 1
c18716 2 18356 2 18568 -31 22 -3 56 -10 75 -15 19 -5 46 -11 60 -14 106 -21
281 -82 425 -151 236 -111 427 -247 620 -440 198 -197 355 -421 453 -645 11
-25 28 -65 40 -90 35 -79 96 -285 116 -392 7 -39 18 -102 22 -121 24 -133 24
-501 0 -622 -2 -11 -7 -42 -10 -69 -11 -81 -72 -305 -110 -405 -95 -248 -225
-468 -391 -661 -56 -64 -200 -206 -260 -256 -33 -27 -62 -52 -65 -55 -11 -12
-138 -99 -205 -139 -70 -43 -274 -150 -286 -150 -4 0 -24 -8 -45 -17 -22 -9
-43 -18 -49 -19 -5 -2 -37 -13 -70 -24 -148 -52 -350 -94 -510 -107 -44 -4
-8318 -7 -18387 -7 l-18308 -1 -1 -25 c-4 -156 1 -3759 5 -3825 9 -143 18
-258 22 -285 2 -14 6 -54 9 -88 4 -35 8 -73 10 -84 3 -11 7 -46 10 -77 4 -31
8 -63 10 -71 3 -8 7 -31 10 -50 12 -78 57 -315 61 -321 2 -3 6 -21 9 -40 6
-35 69 -280 85 -334 64 -206 152 -456 206 -587 66 -162 229 -503 300 -628 329
-583 726 -1086 1188 -1503 49 -45 100 -91 112 -102 29 -28 57 -51 144 -120 41
-33 77 -63 80 -66 28 -33 409 -298 585 -406 221 -136 559 -308 801 -409 234
-97 623 -228 767 -259 10 -2 27 -7 37 -10 10 -3 28 -8 39 -10 12 -3 29 -7 39
-9 179 -44 464 -97 602 -111 36 -4 67 -9 70 -10 3 -2 41 -6 85 -10 44 -4 91
-8 105 -11 14 -2 75 -7 135 -11 145 -10 31308 -10 31445 0 58 4 117 9 130 11
14 3 61 7 105 11 44 4 82 8 85 10 3 1 36 6 75 10 38 4 72 8 75 10 3 1 28 6 55
9 28 4 57 9 65 11 8 2 33 6 55 10 79 11 307 61 495 109 407 103 1046 367 1375
568 17 10 37 21 45 25 34 15 204 123 350 221 188 127 400 289 569 436 142 124
442 420 547 541 38 44 71 82 74 85 25 25 212 260 263 331 9 13 38 53 64 89 63
87 203 298 203 305 0 4 11 21 25 39 14 18 25 35 25 39 0 3 19 38 43 79 296
501 549 1154 661 1703 8 36 14 67 21 97 9 39 54 310 60 363 4 28 8 61 10 75 2
14 7 52 10 85 4 33 8 76 11 95 2 19 7 96 11 170 10 178 10 31250 0 31405 -4
66 -9 134 -12 150 -2 17 -6 59 -10 95 -5 66 -10 108 -20 170 -3 19 -8 53 -11
75 -24 181 -93 504 -153 720 -50 181 -156 493 -207 610 -10 22 -18 42 -19 45
-1 3 -7 18 -13 33 -7 16 -12 30 -12 32 0 21 -238 496 -310 620 -29 50 -58 99
-64 110 -39 66 -71 116 -162 252 -656 975 -1571 1725 -2660 2178 -248 104
-743 263 -904 292 -14 2 -41 8 -60 13 -93 24 -432 84 -540 95 -30 4 -68 8 -85
10 -16 2 -64 7 -105 10 -41 4 -86 8 -100 11 -14 2 -101 7 -195 10 -134 5
-31022 13 -31028 8z"/>
</g>
</svg>
