<svg xmlns="http://www.w3.org/2000/svg" width="5666.667" height="5666.667" version="1.0" viewBox="0 0 4250 4250"><path d="M581.7.6c-.1.1-6.7.4-14.7.8-17.7.8-32.8 1.9-41 3.1-1.4.2-5 .7-8 1-9.6 1.1-30.1 4.5-40.5 6.6-5.5 1.2-10.8 2.3-11.8 2.5-7.1 1.3-29.8 7.2-42.7 11.1-46.2 13.7-93.7 34.7-134 59.1-16.2 9.8-52.8 34.6-55 37.2-.3.3-3.4 2.8-7 5.5s-6.7 5.2-7 5.5c-.3.3-5 4.3-10.5 9-22.2 18.8-48.4 44.8-65.4 65-2.5 2.9-5 5.8-5.6 6.4-1.6 1.8-18.6 23.4-23.9 30.6-7.4 9.9-26.5 39.2-33.3 51C55.2 340.3 38 380.4 24 428.5c-1.8 6-3.4 12.1-3.7 13.4-.2 1.4-.6 2.7-.8 3.1-.3.5-4.3 17.3-6 25-.6 3.2-4.4 23.7-4.9 27-.3 1.9-.8 4.6-1 6-.6 3.2-2.4 17-3.1 23.5-1.5 14.1-2.1 21.6-3.1 36-.3 4.9-.6 93.6-.6 197l-.1 188 119.9.2c66 .2 612.4.4 1214.4.6 602 .1 1095.4.5 1096.5.8 1.1.4 4.5 1 7.5 1.4 7.8 1 25.1 5.1 34.5 8.2 63 20.5 113.9 68.4 138 129.8 4.2 10.7 7.6 21.4 9.1 28.5.3 1.4.9 4.1 1.4 6 1.1 4.1 2.8 15 3.8 23.5.9 8 .9 38.2 0 47-.8 7.3-1.2 9.7-2.8 18-.6 2.7-1.2 5.9-1.4 7-1.5 7.9-7.7 27.5-11.1 35.1-14.2 32.2-27.5 51.8-50.6 74.6-21.8 21.4-48.4 38.4-76.9 49-11.7 4.3-33.6 10.3-41.9 11.3-3 .4-6.2.8-7.1 1-.9.2-5.4.6-10.1 1-4.6.4-551.7.7-1215.6.7H1l-.1 2.4v508.6c.1 1 300.3 1.3 1497.4 1.4 823.4 0 1501.3.4 1506.2.8 5 .4 9.7.9 10.5 1.1.8.2 3.8.6 6.5 1 2.8.3 9.5 1.7 15 3.1 5.5 1.4 10.7 2.7 11.5 2.9 8.4 1.9 26.6 9.3 39.9 16.2 20.5 10.7 36.8 22.7 54.1 40.2 14.7 14.8 17.3 17.9 27.4 33.1 11.3 16.9 16 26 24.5 47.5 2.2 5.4 7.6 24.1 8.6 29.5 1.6 8.9 2.6 15.7 3.4 21.5 1 7.2.8 48-.2 52.5-.3 1.4-1.3 6.5-2.1 11.5-12.7 73.8-64.6 137.6-135.1 166.2-8.6 3.5-24.4 8.8-29.5 9.8-.8.2-3.5.8-6 1.4-2.5.5-5.8 1.2-7.5 1.5-1.6.2-4.9.7-7.3 1.1-2.3.4-5.4.9-7 1.3-1.5.3-679.2.7-1506.1.9-826.9.2-1503.6.5-1503.9.8-.3.3-.6 496.3-.3 509.5l.1 2.5 1831.7-.1c1871.6-.2 1835.6-.2 1856.8 3.1 2.2.3 5.6 1 7.5 1.5 1.9.5 4.6 1.1 6 1.4 10.6 2.1 28.1 8.2 42.5 15.1 23.6 11.1 42.7 24.7 62 44 19.8 19.7 35.5 42.1 45.3 64.5 1.1 2.5 2.8 6.5 4 9 3.5 7.9 9.6 28.5 11.6 39.2.7 3.9 1.8 10.2 2.2 12.1 2.4 13.3 2.4 50.1 0 62.2-.2 1.1-.7 4.2-1 6.9-1.1 8.1-7.2 30.5-11 40.5-9.5 24.8-22.5 46.8-39.1 66.1-5.6 6.4-20 20.6-26 25.6-3.3 2.7-6.2 5.2-6.5 5.5-1.1 1.2-13.8 9.9-20.5 13.9-7 4.3-27.4 15-28.6 15-.4 0-2.4.8-4.5 1.7-2.2.9-4.3 1.8-4.9 1.9-.5.2-3.7 1.3-7 2.4-14.8 5.2-35 9.4-51 10.7-4.4.4-831.8.7-1838.7.7L1 3302.5l-.1 2.5c-.4 15.6.1 375.9.5 382.5.9 14.3 1.8 25.8 2.2 28.5.2 1.4.6 5.4.9 8.8.4 3.5.8 7.3 1 8.4.3 1.1.7 4.6 1 7.7.4 3.1.8 6.3 1 7.1.3.8.7 3.1 1 5 1.2 7.8 5.7 31.5 6.1 32.1.2.3.6 2.1.9 4 .6 3.5 6.9 28 8.5 33.4 6.4 20.6 15.2 45.6 20.6 58.7 6.6 16.2 22.9 50.3 30 62.8 32.9 58.3 72.6 108.6 118.8 150.3 4.9 4.5 10 9.1 11.2 10.2 2.9 2.8 5.7 5.1 14.4 12 4.1 3.3 7.7 6.3 8 6.6 2.8 3.3 40.9 29.8 58.5 40.6 22.1 13.6 55.9 30.8 80.1 40.9 23.4 9.7 62.3 22.8 76.7 25.9 1 .2 2.7.7 3.7 1 1 .3 2.8.8 3.9 1 1.2.3 2.9.7 3.9.9 17.9 4.4 46.4 9.7 60.2 11.1 3.6.4 6.7.9 7 1 .3.2 4.1.6 8.5 1s9.1.8 10.5 1.1c1.4.2 7.5.7 13.5 1.1 14.5 1 3130.8 1 3144.5 0 5.8-.4 11.7-.9 13-1.1 1.4-.3 6.1-.7 10.5-1.1 4.4-.4 8.2-.8 8.5-1 .3-.1 3.6-.6 7.5-1 3.8-.4 7.2-.8 7.5-1 .3-.1 2.8-.6 5.5-.9 2.8-.4 5.7-.9 6.5-1.1.8-.2 3.3-.6 5.5-1 7.9-1.1 30.7-6.1 49.5-10.9 40.7-10.3 104.6-36.7 137.5-56.8 1.7-1 3.7-2.1 4.5-2.5 3.4-1.5 20.4-12.3 35-22.1 18.8-12.7 40-28.9 56.9-43.6 14.2-12.4 44.2-42 54.7-54.1 3.8-4.4 7.1-8.2 7.4-8.5 2.5-2.5 21.2-26 26.3-33.1.9-1.3 3.8-5.3 6.4-8.9 6.3-8.7 20.3-29.8 20.3-30.5 0-.4 1.1-2.1 2.5-3.9 1.4-1.8 2.5-3.5 2.5-3.9 0-.3 1.9-3.8 4.3-7.9 29.6-50.1 54.9-115.4 66.1-170.3.8-3.6 1.4-6.7 2.1-9.7.9-3.9 5.4-31 6-36.3.4-2.8.8-6.1 1-7.5.2-1.4.7-5.2 1-8.5.4-3.3.8-7.6 1.1-9.5.2-1.9.7-9.6 1.1-17 1-17.8 1-3125 0-3140.5-.4-6.6-.9-13.4-1.2-15-.2-1.7-.6-5.9-1-9.5-.5-6.6-1-10.8-2-17-.3-1.9-.8-5.3-1.1-7.5-2.4-18.1-9.3-50.4-15.3-72-5-18.1-15.6-49.3-20.7-61-1-2.2-1.8-4.2-1.9-4.5-.1-.3-.7-1.8-1.3-3.3-.7-1.6-1.2-3-1.2-3.2 0-2.1-23.8-49.6-31-62-2.9-5-5.8-9.9-6.4-11-3.9-6.6-7.1-11.6-16.2-25.2-65.6-97.5-157.1-172.5-266-217.8-24.8-10.4-74.3-26.3-90.4-29.2-1.4-.2-4.1-.8-6-1.3-9.3-2.4-43.2-8.4-54-9.5-3-.4-6.8-.8-8.5-1-1.6-.2-6.4-.7-10.5-1-4.1-.4-8.6-.8-10-1.1-1.4-.2-10.1-.7-19.5-1C3671.1.9 582.3.1 581.7.6z"/></svg>