<?xml version="1.0" encoding="utf-8"?>
<!-- Generator: Adobe Illustrator 24.0.2, SVG Export Plug-In . SVG Version: 6.00 Build 0)  -->
<svg version="1.1" id="Layer_1" xmlns="http://www.w3.org/2000/svg" xmlns:xlink="http://www.w3.org/1999/xlink" x="0px" y="0px"
	 viewBox="0 0 2000 2000" style="enable-background:new 0 0 2000 2000;" xml:space="preserve">
<style type="text/css">
	.st0{fill:#00ACE8;}
	.st1{fill:#FFFFFF;}
</style>
<g>
	<g>
		<g>
			<path class="st0" d="M1255.05,906.28l-3.58-8.94l-31.34,31.33l-1.87,1.92l-332.19,332.19c-8.46-3.97-17.71-6.02-27.04-6.03
				c-35.43,0.01-64.26,28.83-64.26,64.26c-0.01,35.46,28.83,64.3,64.26,64.3c35.42,0,64.24-28.84,64.25-64.3
				c-0.01-9.31-2.07-18.57-5.99-27.03l54.13-54.06l10.55-10.62l246.82-246.79c0.85,8.05,1.28,16.09,1.29,24.01
				c-0.01,59.63-23.15,115.9-65.14,158.43c-41.98,42.48-97.83,66.32-157.36,67.11l-2.57,0.04l-41.3,41.3l13.22,1.39
				c9.06,0.98,18.34,1.46,27.57,1.46c74.36-0.01,141.79-30.25,190.64-79.09c48.85-48.85,79.08-116.28,79.09-190.64
				C1274.22,971.76,1267.76,938.03,1255.05,906.28z M859.03,1341.16c-11.09,0-20.11-9.03-20.12-20.14
				c0-11.09,9.03-20.11,20.12-20.11c11.08,0,20.1,9.01,20.1,20.1C879.13,1332.12,870.12,1341.16,859.03,1341.16z"/>
		</g>
	</g>
</g>
<g>
	<g>
		<g>
			<path class="st0" d="M1028.64,971.51c7.61,7.61,11.8,17.72,11.78,28.49c0,5.36-1.05,10.6-3.04,15.41
				c-2,4.83-4.95,9.26-8.75,13.06c-7.61,7.61-17.72,11.8-28.47,11.8c-10.75,0-20.87-4.19-28.47-11.8
				c-7.61-7.61-11.8-17.72-11.8-28.47c-0.01-10.76,4.18-20.88,11.78-28.49c7.61-7.61,17.72-11.8,28.49-11.78
				C1010.92,959.72,1021.03,963.9,1028.64,971.51z"/>
		</g>
	</g>
</g>
<g>
	<g>
		<g>
			<path class="st0" d="M1140.97,614.69c-35.43-0.02-64.25,28.83-64.25,64.28c-0.01,9.31,2.04,18.57,5.99,27.04l-54.14,54.05
				l-10.54,10.63l-246.82,246.78c-0.85-8.06-1.28-16.1-1.27-24.01c-0.01-59.63,23.12-115.89,65.14-158.42
				c41.93-42.56,97.83-66.32,157.36-67.12l2.57-0.03l41.3-41.3l-13.21-1.41c-9.07-0.97-18.35-1.44-27.58-1.44
				c-148.73-0.01-269.73,120.99-269.73,269.72c0,34.78,6.46,68.5,19.17,100.26l3.57,8.93l31.33-31.33l1.81-1.83l332.26-332.27
				c8.46,3.94,17.71,6.02,27.04,6c17.72,0.01,33.77-7.19,45.41-18.83c11.64-11.64,18.85-27.69,18.84-45.42
				C1205.23,643.52,1176.4,614.68,1140.97,614.69z M1140.97,699.09c-5.35-0.01-10.4-2.1-14.21-5.9c-3.8-3.8-5.89-8.85-5.9-14.21
				c0-11.11,9.03-20.15,20.12-20.15c11.07,0,20.1,9.04,20.1,20.15C1161.08,690.06,1152.06,699.09,1140.97,699.09z"/>
		</g>
	</g>
</g>
<g>
	<g>
		<g>
			<path d="M1204.33,827.52l13.64,18.01c2.85,3.79,5.61,7.63,8.22,11.45l1.84,2.72l-27.85,27.85l-0.1-0.1L1051,1036.52l-6.05-5.08
				c6.49-9.23,9.93-20.1,9.93-31.44c0-5.97-0.93-11.75-2.77-17.16l-0.81-2.33L1204.33,827.52z"/>
		</g>
	</g>
	<g>
		<g>
			<path d="M1036.69,1050.83l-5.1-6.04c-4.62,3.24-9.63,5.72-14.93,7.41c-5.3,1.66-10.83,2.52-16.51,2.52
				c-5.97,0-11.74-0.94-17.16-2.77l-2.33-0.81l-79.4,79.4c-2.39-0.45-4.83-0.68-7.32-0.68c-10.59,0-20.57,4.15-28.09,11.67
				c-7.51,7.51-11.64,17.48-11.64,28.08c0.01,10.6,4.14,20.57,11.66,28.09c7.51,7.51,17.49,11.65,28.08,11.65
				c10.96,0,20.89-4.46,28.09-11.65c7.21-7.21,11.66-17.14,11.66-28.09c0-4.65-0.8-9.19-2.33-13.45L1036.69,1050.83z
				 M902.69,1178.37c-2.33,2.33-5.45,3.62-8.75,3.62c-3.29,0-6.41-1.29-8.74-3.62c-2.34-2.34-3.64-5.46-3.64-8.76
				c0-3.41,1.39-6.51,3.63-8.74c2.25-2.25,5.34-3.64,8.75-3.64c3.3,0,6.41,1.29,8.76,3.64c2.33,2.33,3.63,5.44,3.63,8.74
				C906.33,1172.91,905.03,1176.02,902.69,1178.37z"/>
		</g>
	</g>
	<g>
		<g>
			<path d="M955.04,968.55c-6.49,9.23-9.92,20.11-9.92,31.45c0,5.97,0.94,11.74,2.77,17.16l0.81,2.33l-153.02,152.98l-13.63-18.03
				c-2.86-3.78-5.63-7.63-8.22-11.45l-1.86-2.72l27.86-27.86l0.1,0.1L949,963.45L955.04,968.55z"/>
		</g>
	</g>
	<g>
		<g>
			<g>
				<path d="M1134.14,802.3c-7.52-7.52-17.49-11.65-28.09-11.67c-21.91,0-39.73,17.83-39.75,39.75c0.01,4.66,0.81,9.2,2.33,13.45
					L963.31,949.15l5.09,6.05c4.61-3.24,9.62-5.72,14.94-7.39c5.28-1.68,10.83-2.53,16.51-2.53c5.97,0,11.74,0.94,17.16,2.78
					l2.33,0.81l79.4-79.4c2.39,0.44,4.83,0.67,7.3,0.67c10.96,0,20.9-4.47,28.09-11.66c7.19-7.2,11.65-17.13,11.65-28.09
					C1145.79,819.78,1141.64,809.8,1134.14,802.3z M1114.8,839.11c-2.35,2.35-5.46,3.64-8.76,3.64c-3.3,0-6.41-1.29-8.74-3.62
					c-2.35-2.35-3.64-5.46-3.64-8.76c0-3.3,1.29-6.41,3.64-8.76c2.33-2.33,5.44-3.62,8.74-3.62c3.3,0,6.41,1.29,8.76,3.64
					c2.33,2.33,3.62,5.44,3.62,8.74C1118.42,833.67,1117.13,836.78,1114.8,839.11z"/>
			</g>
		</g>
	</g>
</g>
</svg>
