<?xml version="1.0" encoding="utf-8"?>
<!-- Generator: Adobe Illustrator 24.0.2, SVG Export Plug-In . SVG Version: 6.00 Build 0)  -->
<svg version="1.1" id="Layer_1" xmlns="http://www.w3.org/2000/svg" xmlns:xlink="http://www.w3.org/1999/xlink" x="0px" y="0px"
	 viewBox="0 0 2000 1400" style="enable-background:new 0 0 2000 1400;" xml:space="preserve">
<style type="text/css">
	.st0{fill:#00ACE8;}
	.st1{fill:#FFFFFF;}
</style>
<g>
	<g>
		<g>
			<g>
				<g>
					<path class="st0" d="M1175.47,479.54l-2.46-6.15l-21.56,21.56l-1.29,1.32L921.62,724.8c-5.82-2.73-12.19-4.14-18.6-4.15
						c-24.38,0.01-44.21,19.84-44.21,44.21c-0.01,24.39,19.84,44.24,44.21,44.24c24.37,0,44.19-19.84,44.21-44.24
						c-0.01-6.4-1.42-12.77-4.12-18.6l37.24-37.19l7.26-7.31l169.8-169.78c0.59,5.54,0.88,11.07,0.89,16.52
						c-0.01,41.02-15.92,79.73-44.82,109c-28.88,29.22-67.31,45.63-108.26,46.17l-1.77,0.03l-28.41,28.41l9.09,0.96
						c6.23,0.67,12.62,1,18.97,1c51.16-0.01,97.55-20.81,131.15-54.41s54.4-80,54.41-131.15
						C1188.66,524.59,1184.21,501.38,1175.47,479.54z M903.02,778.72c-7.63,0-13.83-6.21-13.84-13.85c0-7.63,6.21-13.83,13.84-13.83
						c7.62,0,13.83,6.2,13.83,13.83C916.85,772.51,910.64,778.72,903.02,778.72z"/>
				</g>
			</g>
		</g>
		<g>
			<g>
				<path d="M1140.57,425.35l9.38,12.39c1.96,2.61,3.86,5.25,5.65,7.88l1.27,1.87l-19.16,19.16l-0.07-0.07l-102.56,102.56l-4.16-3.5
					c4.46-6.35,6.83-13.83,6.83-21.63c0-4.11-0.64-8.08-1.91-11.81l-0.56-1.61L1140.57,425.35z"/>
			</g>
		</g>
		<g>
			<g>
				<path d="M1025.24,578.98l-3.51-4.15c-3.18,2.23-6.63,3.94-10.27,5.1c-3.65,1.14-7.45,1.74-11.36,1.74
					c-4.11,0-8.08-0.65-11.81-1.91l-1.61-0.56l-54.63,54.63c-1.64-0.31-3.33-0.47-5.04-0.47c-7.29,0-14.15,2.85-19.33,8.03
					c-5.16,5.16-8.01,12.03-8.01,19.32c0.01,7.3,2.85,14.15,8.02,19.33c5.16,5.16,12.03,8.02,19.32,8.02
					c7.54,0,14.37-3.07,19.32-8.02c4.96-4.96,8.02-11.79,8.02-19.33c0-3.2-0.55-6.32-1.6-9.25L1025.24,578.98z M933.05,666.72
					c-1.61,1.61-3.75,2.49-6.02,2.49c-2.27,0-4.41-0.89-6.01-2.49c-1.61-1.61-2.5-3.75-2.5-6.02c0-2.35,0.96-4.48,2.5-6.01
					c1.54-1.54,3.68-2.5,6.02-2.5c2.27,0,4.41,0.89,6.02,2.5c1.61,1.61,2.5,3.74,2.5,6.01S934.67,665.11,933.05,666.72z"/>
			</g>
		</g>
		<g>
			<g>
				<g>
					<path class="st0" d="M1019.71,524.41c5.24,5.24,8.12,12.19,8.11,19.6c0,3.69-0.73,7.29-2.09,10.6
						c-1.37,3.32-3.41,6.37-6.02,8.99c-5.24,5.24-12.19,8.12-19.59,8.12s-14.35-2.88-19.59-8.12c-5.24-5.24-8.12-12.19-8.12-19.59
						c-0.01-7.41,2.87-14.36,8.11-19.6c5.24-5.24,12.19-8.12,19.6-8.11C1007.51,516.3,1014.47,519.18,1019.71,524.41z"/>
				</g>
			</g>
		</g>
		<g>
			<g>
				<g>
					<path class="st0" d="M1096.98,278.93c-24.38-0.01-44.21,19.84-44.2,44.23c-0.01,6.4,1.41,12.77,4.12,18.6l-37.25,37.19
						l-7.25,7.32L842.59,556.04c-0.59-5.54-0.88-11.07-0.88-16.52c-0.01-41.02,15.91-79.73,44.81-108.99
						c28.85-29.28,67.31-45.63,108.26-46.18l1.77-0.02l28.41-28.41l-9.09-0.97c-6.24-0.66-12.62-0.99-18.97-0.99
						c-102.32-0.01-185.57,83.24-185.57,185.56c0,23.93,4.44,47.13,13.19,68.97l2.46,6.14l21.56-21.56l1.25-1.26l228.59-228.59
						c5.82,2.71,12.19,4.14,18.6,4.13c12.19,0.01,23.24-4.95,31.24-12.95c8.01-8.01,12.97-19.05,12.96-31.25
						C1141.19,298.77,1121.36,278.92,1096.98,278.93z M1096.98,336.99c-3.68-0.01-7.16-1.44-9.78-4.06
						c-2.62-2.62-4.05-6.09-4.06-9.78c0-7.64,6.21-13.86,13.84-13.86c7.61,0,13.83,6.22,13.83,13.86
						C1110.82,330.79,1104.61,336.99,1096.98,336.99z"/>
				</g>
			</g>
		</g>
		<g>
			<g>
				<path d="M969.07,522.38c-4.46,6.35-6.83,13.84-6.83,21.64c0,4.11,0.65,8.08,1.91,11.81l0.56,1.61L859.43,662.67l-9.37-12.4
					c-1.97-2.6-3.88-5.25-5.65-7.88l-1.28-1.87l19.17-19.16l0.07,0.07l102.56-102.56L969.07,522.38z"/>
			</g>
		</g>
		<g>
			<g>
				<g>
					<path d="M1092.28,408c-5.17-5.17-12.03-8.02-19.33-8.03c-15.07,0-27.33,12.26-27.34,27.34c0.01,3.21,0.56,6.33,1.61,9.25
						l-72.46,72.46l3.5,4.16c3.17-2.23,6.62-3.94,10.28-5.09c3.63-1.15,7.45-1.74,11.36-1.74c4.11,0,8.08,0.65,11.81,1.91l1.61,0.56
						l54.63-54.63c1.64,0.3,3.32,0.46,5.02,0.46c7.54,0,14.38-3.07,19.33-8.02c4.95-4.95,8.02-11.79,8.02-19.32
						C1100.3,420.02,1097.45,413.16,1092.28,408z M1078.98,433.33c-1.62,1.62-3.75,2.5-6.02,2.5s-4.41-0.89-6.01-2.49
						c-1.62-1.62-2.5-3.75-2.5-6.02c0-2.27,0.89-4.41,2.5-6.02c1.61-1.61,3.74-2.49,6.01-2.49s4.41,0.89,6.02,2.5
						c1.61,1.61,2.49,3.74,2.49,6.01C1081.47,429.59,1080.58,431.72,1078.98,433.33z"/>
				</g>
			</g>
		</g>
	</g>
	<path class="st0" d="M601.32,969.11h88.07v105.09h-80.17c-10.2,0-20.07-0.86-29.6-2.59c-9.54-1.73-18.42-5.96-26.64-12.7
		c-9.87-8.06-16.77-17.88-20.72-29.48c-3.95-11.59-6.09-23.47-6.41-35.65c-0.17-2.63-0.21-5.18-0.12-7.65
		c0.08-2.47,0.2-4.93,0.37-7.4c1.81-27.96,9.41-48.51,22.82-61.67c13.4-13.15,33.51-19.73,60.32-19.73l80.17-0.25v30.59h-80.17
		c-17.6,0.17-28.99,6.38-34.17,18.63c-5.18,12.25-7.77,25.7-7.77,40.33c0,0.17,0,0.29,0,0.37c0,0.08,0,0.21,0,0.37
		c0,14.97,2.59,27.88,7.77,38.73c5.18,10.85,16.57,16.28,34.17,16.28l41.94-0.25v-41.69h-49.83V969.11z"/>
	<path class="st0" d="M716.52,929.39v-32.32h36.02v32.32H716.52z M716.52,1074.2v-130h36.02v130H716.52z"/>
	<path class="st0" d="M793.49,944.2v-47.12h34.29v47.12h36.26v25.9h-36.26v52.54c-0.16,12.99,2.8,20.56,8.88,22.7
		c6.08,2.14,14.47,3.21,25.16,3.21c0.33,0,0.7,0,1.11,0c0.41,0,0.78,0,1.11,0v25.66h-31.33c-12.99,0-22.78-3.62-29.36-10.85
		c-6.58-7.23-9.87-17.1-9.87-29.6V970.1h-24.18v-25.9H793.49z"/>
	<path d="M945.44,928.65c-8.06,0.17-14.84,1.85-20.35,5.06c-5.51,3.21-8.26,9.34-8.26,18.38c0,6.91,2.34,11.84,7.03,14.8
		c4.69,2.96,10.15,4.44,16.4,4.44l49.34-0.25c1.81,0.17,3.7,0.25,5.67,0.25c1.97,0,3.95,0.09,5.92,0.25
		c5.75,0.33,11.43,1.28,17.02,2.84c5.59,1.57,10.52,4.4,14.8,8.51c3.95,3.62,6.91,7.98,8.88,13.07c1.97,5.1,3.21,10.36,3.7,15.79
		c0.16,1.65,0.29,3.25,0.37,4.81c0.08,1.56,0.12,3.17,0.12,4.81c-0.33,20.56-6.01,34.5-17.02,41.81
		c-11.02,7.32-25.99,10.98-44.9,10.98H885v-31.58h93.25c8.22,0.17,15.33-1.15,21.34-3.95c6-2.8,8.43-9.13,7.28-19
		c-0.82-7.73-3.7-12.5-8.63-14.31c-4.93-1.81-10.77-2.8-17.51-2.96l-43.91-0.25c-18.25,0.16-32.69-3.49-43.29-10.98
		c-10.61-7.48-15.83-21.01-15.66-40.58c0.33-20.56,6.04-34.57,17.14-42.06c11.1-7.48,26.11-11.22,45.02-11.22l97.44-0.25v31.58
		H945.44z"/>
	<path d="M1126.26,1045.58h27.63V944.2h34.29v126.55c0,16.61-3.86,29.15-11.59,37.62c-7.73,8.47-20.15,12.71-37.25,12.71h-67.35
		v-26.4h61.43c6.91-0.17,12.09-1.89,15.54-5.18c3.45-3.29,5.1-8.39,4.93-15.29h-30.34c-17.6,0-31-3.53-40.21-10.61
		c-9.21-7.07-13.81-20.06-13.81-38.98V944.2h34.04v77.46c0,9.54,1.44,15.95,4.32,19.24c2.87,3.29,9,4.93,18.38,4.93V1045.58z"/>
	<path d="M1283.64,944.2c17.1,0.16,30.42,3.54,39.96,10.11c9.54,6.58,14.31,19.16,14.31,37.74v82.15h-34.29V996
		c0-9.04-1.48-15.13-4.44-18.25c-2.96-3.12-9.05-4.69-18.25-4.69l-27.63-0.25v101.39h-34.29v-130H1283.64z"/>
	<path d="M1437.82,1046.32h36.51v27.88h-46.62c-8.88,0-17.56-0.94-26.03-2.84c-8.47-1.89-16.08-6.04-22.82-12.46
		c-5.59-5.43-9.95-11.8-13.08-19.12c-3.13-7.32-5.1-14.84-5.92-22.57c0-1.15-0.04-2.34-0.12-3.58c-0.09-1.23-0.12-2.42-0.12-3.58
		c0-1.48,0.04-2.96,0.12-4.44c0.08-1.48,0.2-2.96,0.37-4.44c0.65-7.56,2.55-14.96,5.67-22.2c3.12-7.23,7.48-13.57,13.08-19
		c6.74-6.41,14.35-10.61,22.82-12.58c8.47-1.97,17.15-2.96,26.03-2.96l46.62-0.25v28.12h-36.51c-0.49,0.17-1.03,0.25-1.6,0.25
		c-0.58,0-1.11,0-1.6,0c-0.99,0-1.93,0-2.84,0c-0.91,0-1.77,0-2.59,0c-3.29,0-6.5,0.25-9.62,0.74c-3.13,0.49-6.09,1.56-8.88,3.21
		c-6.09,3.62-10.16,8.47-12.21,14.55c-2.06,6.09-3.08,12.42-3.08,18.99c0.16,6.42,1.31,12.54,3.45,18.38
		c2.14,5.84,6.08,10.49,11.84,13.94c2.79,1.65,5.75,2.71,8.88,3.21c3.12,0.49,6.33,0.82,9.62,0.99c0.99,0,2.01,0,3.08,0
		c1.07,0,2.1,0,3.08,0c0.49,0,0.94,0,1.36,0c0.41,0,0.78,0,1.11,0V1046.32z"/>
	<rect x="1069.52" y="897.08" class="st0" width="404.81" height="32.32"/>
</g>
</svg>
