<?xml version="1.0" encoding="utf-8"?>
<!-- Generator: Adobe Illustrator 24.0.2, SVG Export Plug-In . SVG Version: 6.00 Build 0)  -->
<svg version="1.1" id="Layer_1" xmlns="http://www.w3.org/2000/svg" xmlns:xlink="http://www.w3.org/1999/xlink" x="0px" y="0px"
	 viewBox="0 0 2000 700" style="enable-background:new 0 0 2000 700;" xml:space="preserve">
<style type="text/css">
	.st0{fill:#00ACE8;}
	.st1{fill:#FFFFFF;}
</style>
<rect width="2000" height="700"/>
<g>
	<g>
		<g>
			<g>
				<g>
					<path class="st0" d="M755.02,305.41l-1.7-4.25l-14.91,14.91l-0.89,0.91L579.49,475.01c-4.02-1.89-8.43-2.86-12.86-2.87
						c-16.86,0.01-30.57,13.72-30.57,30.57c0,16.87,13.72,30.59,30.57,30.59c16.85,0,30.56-13.72,30.57-30.59
						c-0.01-4.43-0.98-8.83-2.85-12.86l25.75-25.72l5.02-5.05l117.42-117.4c0.41,3.83,0.61,7.65,0.61,11.42
						c0,28.37-11.01,55.14-30.99,75.37c-19.97,20.21-46.54,31.55-74.86,31.93l-1.22,0.02l-19.65,19.65l6.29,0.66
						c4.31,0.47,8.73,0.69,13.12,0.69c35.37,0,67.45-14.39,90.69-37.63s37.62-55.32,37.63-90.69
						C764.14,336.57,761.07,320.52,755.02,305.41z M566.62,512.3c-5.28,0-9.57-4.3-9.57-9.58c0-5.28,4.29-9.57,9.57-9.57
						c5.27,0,9.56,4.29,9.56,9.56C576.19,508,571.9,512.3,566.62,512.3z"/>
				</g>
			</g>
		</g>
		<g>
			<g>
				<path class="st1" d="M730.89,267.95l6.49,8.57c1.36,1.81,2.67,3.63,3.91,5.45l0.88,1.29l-13.25,13.25l-0.05-0.05l-70.92,70.92
					l-2.88-2.42c3.09-4.39,4.73-9.56,4.73-14.96c0-2.84-0.44-5.59-1.32-8.16l-0.38-1.11L730.89,267.95z"/>
			</g>
		</g>
		<g>
			<g>
				<path class="st1" d="M651.14,374.18l-2.42-2.87c-2.2,1.54-4.58,2.72-7.1,3.52c-2.52,0.79-5.15,1.2-7.85,1.2
					c-2.84,0-5.59-0.45-8.16-1.32l-1.11-0.38l-37.77,37.77c-1.14-0.21-2.3-0.32-3.48-0.32c-5.04,0-9.79,1.97-13.36,5.55
					c-3.57,3.57-5.54,8.32-5.54,13.36c0,5.04,1.97,9.79,5.55,13.36c3.57,3.57,8.32,5.54,13.36,5.54c5.21,0,9.94-2.12,13.36-5.54
					c3.43-3.43,5.55-8.15,5.55-13.36c0-2.21-0.38-4.37-1.11-6.4L651.14,374.18z M587.39,434.85c-1.11,1.11-2.59,1.72-4.16,1.72
					c-1.57,0-3.05-0.61-4.16-1.72c-1.11-1.11-1.73-2.6-1.73-4.17c0-1.62,0.66-3.1,1.73-4.16c1.07-1.07,2.54-1.73,4.16-1.73
					c1.57,0,3.05,0.61,4.17,1.73c1.11,1.11,1.73,2.59,1.73,4.16C589.12,432.26,588.51,433.74,587.39,434.85z"/>
			</g>
		</g>
		<g>
			<g>
				<g>
					<path class="st0" d="M647.31,336.45c3.62,3.62,5.61,8.43,5.61,13.55c0,2.55-0.5,5.04-1.45,7.33c-0.95,2.3-2.35,4.4-4.16,6.22
						c-3.62,3.62-8.43,5.61-13.55,5.61c-5.12,0-9.93-1.99-13.55-5.61c-3.62-3.62-5.61-8.43-5.61-13.55
						c-0.01-5.12,1.99-9.93,5.61-13.55c3.62-3.62,8.43-5.61,13.55-5.61C638.88,330.84,643.69,332.83,647.31,336.45z"/>
				</g>
			</g>
		</g>
		<g>
			<g>
				<g>
					<path class="st0" d="M700.75,166.7c-16.86-0.01-30.57,13.72-30.56,30.58c0,4.43,0.97,8.83,2.85,12.86l-25.76,25.72l-5.01,5.06
						l-117.42,117.4c-0.41-3.83-0.61-7.66-0.61-11.42c0-28.37,11-55.13,30.99-75.37c19.95-20.25,46.54-31.55,74.86-31.93l1.22-0.01
						l19.65-19.65l-6.28-0.67c-4.31-0.46-8.73-0.69-13.12-0.69c-70.75-0.01-128.32,57.56-128.32,128.32
						c0,16.54,3.07,32.59,9.12,47.7l1.7,4.25l14.91-14.91l0.86-0.87l158.07-158.07c4.02,1.87,8.43,2.86,12.86,2.86
						c8.43,0.01,16.07-3.42,21.6-8.96c5.54-5.54,8.97-13.17,8.96-21.61C731.32,180.41,717.61,166.69,700.75,166.7z M700.75,206.85
						c-2.55,0-4.95-1-6.76-2.81c-1.81-1.81-2.8-4.21-2.81-6.76c0-5.28,4.3-9.58,9.57-9.58c5.27,0,9.56,4.3,9.56,9.58
						C710.32,202.55,706.02,206.85,700.75,206.85z"/>
				</g>
			</g>
		</g>
		<g>
			<g>
				<path class="st1" d="M612.3,335.04c-3.09,4.39-4.72,9.57-4.72,14.96c0,2.84,0.45,5.59,1.32,8.16l0.38,1.11l-72.8,72.78
					l-6.48-8.58c-1.36-1.8-2.68-3.63-3.91-5.45l-0.89-1.29l13.25-13.25l0.05,0.05l70.92-70.92L612.3,335.04z"/>
			</g>
		</g>
		<g>
			<g>
				<g>
					<path class="st1" d="M697.5,255.95c-3.58-3.58-8.32-5.54-13.36-5.55c-10.42,0-18.9,8.48-18.91,18.91c0,2.22,0.38,4.38,1.11,6.4
						l-50.11,50.11l2.42,2.88c2.19-1.54,4.58-2.72,7.11-3.52c2.51-0.8,5.15-1.2,7.85-1.2c2.84,0,5.59,0.45,8.16,1.32l1.11,0.38
						l37.77-37.77c1.14,0.21,2.3,0.32,3.47,0.32c5.21,0,9.94-2.13,13.36-5.55c3.42-3.42,5.54-8.15,5.54-13.36
						C703.04,264.26,701.07,259.52,697.5,255.95z M688.3,273.46c-1.12,1.12-2.6,1.73-4.17,1.73c-1.57,0-3.05-0.61-4.16-1.72
						c-1.12-1.12-1.73-2.6-1.73-4.17s0.61-3.05,1.73-4.17c1.11-1.11,2.59-1.72,4.16-1.72c1.57,0,3.05,0.61,4.17,1.73
						c1.11,1.11,1.72,2.59,1.72,4.16S689.41,272.35,688.3,273.46z"/>
				</g>
			</g>
		</g>
	</g>
	<g>
		<path class="st0" d="M893.09,322.37h60.9v72.67h-55.44c-7.05,0-13.88-0.6-20.47-1.79c-6.6-1.19-12.74-4.12-18.42-8.78
			c-6.82-5.57-11.6-12.37-14.33-20.38c-2.73-8.02-4.21-16.23-4.43-24.65c-0.11-1.82-0.14-3.58-0.09-5.29
			c0.06-1.71,0.14-3.41,0.26-5.12c1.25-19.33,6.51-33.55,15.78-42.65c9.27-9.1,23.17-13.65,41.71-13.65l55.44-0.17v21.15h-55.44
			c-12.17,0.11-20.04,4.41-23.63,12.88c-3.58,8.47-5.37,17.77-5.37,27.89c0,0.11,0,0.2,0,0.26c0,0.06,0,0.14,0,0.26
			c0,10.35,1.79,19.28,5.37,26.78s11.46,11.26,23.63,11.26l29-0.17v-28.83h-34.46V322.37z"/>
		<path class="st0" d="M972.75,294.9v-22.35h24.91v22.35H972.75z M972.75,395.03v-89.9h24.91v89.9H972.75z"/>
		<path class="st0" d="M1025.97,305.14v-32.58h23.71v32.58h25.08v17.91h-25.08v36.33c-0.11,8.98,1.93,14.22,6.14,15.69
			c4.21,1.48,10.01,2.22,17.4,2.22c0.23,0,0.48,0,0.77,0c0.28,0,0.54,0,0.77,0v17.74h-21.66c-8.98,0-15.75-2.5-20.3-7.51
			c-4.55-5-6.82-11.83-6.82-20.47v-44.01h-16.72v-17.91H1025.97z"/>
		<path class="st1" d="M1131.04,294.39c-5.57,0.11-10.26,1.28-14.07,3.5c-3.81,2.22-5.71,6.46-5.71,12.71
			c0,4.78,1.62,8.19,4.86,10.23c3.24,2.05,7.02,3.07,11.34,3.07l34.12-0.17c1.25,0.11,2.56,0.17,3.92,0.17
			c1.37,0,2.73,0.06,4.09,0.17c3.98,0.23,7.9,0.88,11.77,1.96c3.86,1.08,7.28,3.04,10.24,5.89c2.73,2.5,4.78,5.52,6.14,9.04
			c1.37,3.53,2.22,7.17,2.56,10.92c0.11,1.14,0.2,2.25,0.26,3.33c0.06,1.08,0.09,2.19,0.09,3.33c-0.23,14.22-4.15,23.85-11.77,28.91
			c-7.62,5.06-17.97,7.59-31.05,7.59h-68.57V373.2h64.48c5.69,0.11,10.6-0.79,14.76-2.73c4.15-1.93,5.83-6.31,5.03-13.14
			c-0.57-5.34-2.56-8.64-5.97-9.89c-3.41-1.25-7.45-1.93-12.11-2.05l-30.36-0.17c-12.62,0.11-22.6-2.42-29.94-7.59
			c-7.34-5.17-10.95-14.53-10.83-28.06c0.23-14.21,4.18-23.91,11.86-29.08c7.68-5.17,18.05-7.76,31.13-7.76l67.38-0.17v21.83
			H1131.04z"/>
		<path class="st1" d="M1256.08,375.25h19.11v-70.11h23.71v87.51c0,11.48-2.67,20.16-8.02,26.01c-5.35,5.86-13.93,8.79-25.76,8.79
			h-46.57v-18.25h42.48c4.78-0.11,8.36-1.31,10.75-3.58c2.39-2.28,3.52-5.8,3.41-10.58h-20.98c-12.17,0-21.44-2.44-27.81-7.33
			c-6.37-4.89-9.55-13.87-9.55-26.95v-55.61h23.54v53.56c0,6.6,0.99,11.03,2.99,13.31c1.99,2.28,6.23,3.41,12.71,3.41V375.25z"/>
		<path class="st1" d="M1364.91,305.14c11.83,0.11,21.04,2.45,27.63,6.99c6.59,4.55,9.89,13.25,9.89,26.1v56.8h-23.71v-54.08
			c0-6.25-1.02-10.46-3.07-12.62c-2.05-2.16-6.26-3.24-12.62-3.24l-19.11-0.17v70.11h-23.71v-89.9H1364.91z"/>
		<path class="st1" d="M1471.52,375.76h25.25v19.28h-32.24c-6.14,0-12.14-0.65-18-1.96c-5.86-1.31-11.12-4.18-15.78-8.61
			c-3.87-3.75-6.88-8.16-9.04-13.22c-2.16-5.06-3.53-10.26-4.09-15.61c0-0.8-0.03-1.62-0.09-2.47c-0.06-0.85-0.09-1.68-0.09-2.47
			c0-1.02,0.03-2.05,0.09-3.07c0.06-1.02,0.14-2.05,0.26-3.07c0.45-5.23,1.76-10.35,3.92-15.35c2.16-5,5.17-9.38,9.04-13.14
			c4.66-4.43,9.92-7.33,15.78-8.7c5.86-1.37,11.86-2.05,18-2.05l32.24-0.17v19.45h-25.25c-0.34,0.11-0.71,0.17-1.11,0.17
			c-0.4,0-0.77,0-1.11,0c-0.68,0-1.34,0-1.96,0c-0.63,0-1.22,0-1.79,0c-2.28,0-4.49,0.17-6.65,0.51c-2.16,0.34-4.21,1.08-6.14,2.22
			c-4.21,2.5-7.02,5.86-8.44,10.06c-1.42,4.21-2.13,8.59-2.13,13.13c0.11,4.44,0.91,8.67,2.39,12.71c1.48,4.04,4.21,7.25,8.19,9.64
			c1.93,1.14,3.98,1.88,6.14,2.22c2.16,0.34,4.38,0.57,6.65,0.68c0.68,0,1.39,0,2.13,0c0.74,0,1.45,0,2.13,0c0.34,0,0.65,0,0.94,0
			c0.28,0,0.54,0,0.77,0V375.76z"/>
		<rect x="1216.85" y="272.56" class="st0" width="279.92" height="22.35"/>
	</g>
</g>
</svg>
