<svg xmlns="http://www.w3.org/2000/svg" xml:space="preserve" id="Layer_1" x="0" y="0" style="enable-background:new 0 0 2000 700" version="1.1" viewBox="0 0 2000 700"><style>.st0{fill:#00ace8}</style><path d="m755.02 305.41-1.7-4.25-14.91 14.91-.89.91-158.03 158.03a30.437 30.437 0 0 0-12.86-2.87c-16.86.01-30.57 13.72-30.57 30.57 0 16.87 13.72 30.59 30.57 30.59s30.56-13.72 30.57-30.59c-.01-4.43-.98-8.83-2.85-12.86l25.75-25.72 5.02-5.05 117.42-117.4c.41 3.83.61 7.65.61 11.42 0 28.37-11.01 55.14-30.99 75.37-19.97 20.21-46.54 31.55-74.86 31.93l-1.22.02-19.65 19.65 6.29.66c4.31.47 8.73.69 13.12.69 35.37 0 67.45-14.39 90.69-37.63s37.62-55.32 37.63-90.69c-.02-16.53-3.09-32.58-9.14-47.69zM566.62 512.3c-5.28 0-9.57-4.3-9.57-9.58s4.29-9.57 9.57-9.57c5.27 0 9.56 4.29 9.56 9.56.01 5.29-4.28 9.59-9.56 9.59z" class="st0"/><path d="m730.89 267.95 6.49 8.57c1.36 1.81 2.67 3.63 3.91 5.45l.88 1.29-13.25 13.25-.05-.05-70.92 70.92-2.88-2.42c3.09-4.39 4.73-9.56 4.73-14.96 0-2.84-.44-5.59-1.32-8.16l-.38-1.11 72.79-72.78zm-79.75 106.23-2.42-2.87a26.15 26.15 0 0 1-7.1 3.52c-2.52.79-5.15 1.2-7.85 1.2-2.84 0-5.59-.45-8.16-1.32l-1.11-.38-37.77 37.77c-1.14-.21-2.3-.32-3.48-.32-5.04 0-9.79 1.97-13.36 5.55a18.784 18.784 0 0 0-5.54 13.36c0 5.04 1.97 9.79 5.55 13.36 3.57 3.57 8.32 5.54 13.36 5.54 5.21 0 9.94-2.12 13.36-5.54 3.43-3.43 5.55-8.15 5.55-13.36 0-2.21-.38-4.37-1.11-6.4l50.08-50.11zm-63.75 60.67a5.847 5.847 0 0 1-4.16 1.72c-1.57 0-3.05-.61-4.16-1.72a5.88 5.88 0 0 1 0-8.33 5.866 5.866 0 0 1 4.16-1.73c1.57 0 3.05.61 4.17 1.73a5.857 5.857 0 0 1 1.73 4.16 5.872 5.872 0 0 1-1.74 4.17z"/><path d="M647.31 336.45a19.03 19.03 0 0 1 5.61 13.55c0 2.55-.5 5.04-1.45 7.33-.95 2.3-2.35 4.4-4.16 6.22a19.03 19.03 0 0 1-13.55 5.61c-5.12 0-9.93-1.99-13.55-5.61A19.03 19.03 0 0 1 614.6 350c-.01-5.12 1.99-9.93 5.61-13.55a19.03 19.03 0 0 1 13.55-5.61c5.12 0 9.93 1.99 13.55 5.61zm53.44-169.75c-16.86-.01-30.57 13.72-30.56 30.58 0 4.43.97 8.83 2.85 12.86l-25.76 25.72-5.01 5.06-117.42 117.4c-.41-3.83-.61-7.66-.61-11.42 0-28.37 11-55.13 30.99-75.37 19.95-20.25 46.54-31.55 74.86-31.93l1.22-.01 19.65-19.65-6.28-.67c-4.31-.46-8.73-.69-13.12-.69-70.75-.01-128.32 57.56-128.32 128.32 0 16.54 3.07 32.59 9.12 47.7l1.7 4.25 14.91-14.91.86-.87L687.9 225c4.02 1.87 8.43 2.86 12.86 2.86 8.43.01 16.07-3.42 21.6-8.96 5.54-5.54 8.97-13.17 8.96-21.61 0-16.88-13.71-30.6-30.57-30.59zm0 40.15c-2.55 0-4.95-1-6.76-2.81a9.544 9.544 0 0 1-2.81-6.76c0-5.28 4.3-9.58 9.57-9.58 5.27 0 9.56 4.3 9.56 9.58.01 5.27-4.29 9.57-9.56 9.57z" class="st0"/><path d="M612.3 335.04c-3.09 4.39-4.72 9.57-4.72 14.96 0 2.84.45 5.59 1.32 8.16l.38 1.11-72.8 72.78-6.48-8.58c-1.36-1.8-2.68-3.63-3.91-5.45l-.89-1.29 13.25-13.25.05.05 70.92-70.92 2.88 2.43zm85.2-79.09a18.811 18.811 0 0 0-13.36-5.55c-10.42 0-18.9 8.48-18.91 18.91 0 2.22.38 4.38 1.11 6.4l-50.11 50.11 2.42 2.88c2.19-1.54 4.58-2.72 7.11-3.52 2.51-.8 5.15-1.2 7.85-1.2 2.84 0 5.59.45 8.16 1.32l1.11.38 37.77-37.77c1.14.21 2.3.32 3.47.32 5.21 0 9.94-2.13 13.36-5.55s5.54-8.15 5.54-13.36c.02-5.06-1.95-9.8-5.52-13.37zm-9.2 17.51a5.855 5.855 0 0 1-4.17 1.73c-1.57 0-3.05-.61-4.16-1.72-1.12-1.12-1.73-2.6-1.73-4.17s.61-3.05 1.73-4.17a5.847 5.847 0 0 1 4.16-1.72c1.57 0 3.05.61 4.17 1.73 1.11 1.11 1.72 2.59 1.72 4.16s-.61 3.05-1.72 4.16z"/><path d="M893.09 322.37h60.9v72.67h-55.44c-7.05 0-13.88-.6-20.47-1.79-6.6-1.19-12.74-4.12-18.42-8.78-6.82-5.57-11.6-12.37-14.33-20.38-2.73-8.02-4.21-16.23-4.43-24.65a59.03 59.03 0 0 1-.09-5.29c.06-1.71.14-3.41.26-5.12 1.25-19.33 6.51-33.55 15.78-42.65 9.27-9.1 23.17-13.65 41.71-13.65l55.44-.17v21.15h-55.44c-12.17.11-20.04 4.41-23.63 12.88-3.58 8.47-5.37 17.77-5.37 27.89v.52c0 10.35 1.79 19.28 5.37 26.78s11.46 11.26 23.63 11.26l29-.17v-28.83H893.1v-21.67zm79.66-27.47v-22.35h24.91v22.35h-24.91zm0 100.13v-89.9h24.91v89.9h-24.91zm53.22-89.89v-32.58h23.71v32.58h25.08v17.91h-25.08v36.33c-.11 8.98 1.93 14.22 6.14 15.69 4.21 1.48 10.01 2.22 17.4 2.22h1.54v17.74h-21.66c-8.98 0-15.75-2.5-20.3-7.51-4.55-5-6.82-11.83-6.82-20.47v-44.01h-16.72v-17.91h16.71z" class="st0"/><path d="M1131.04 294.39c-5.57.11-10.26 1.28-14.07 3.5-3.81 2.22-5.71 6.46-5.71 12.71 0 4.78 1.62 8.19 4.86 10.23 3.24 2.05 7.02 3.07 11.34 3.07l34.12-.17c1.25.11 2.56.17 3.92.17 1.37 0 2.73.06 4.09.17 3.98.23 7.9.88 11.77 1.96 3.86 1.08 7.28 3.04 10.24 5.89 2.73 2.5 4.78 5.52 6.14 9.04a40.02 40.02 0 0 1 2.56 10.92c.11 1.14.2 2.25.26 3.33s.09 2.19.09 3.33c-.23 14.22-4.15 23.85-11.77 28.91-7.62 5.06-17.97 7.59-31.05 7.59h-68.57V373.2h64.48c5.69.11 10.6-.79 14.76-2.73 4.15-1.93 5.83-6.31 5.03-13.14-.57-5.34-2.56-8.64-5.97-9.89-3.41-1.25-7.45-1.93-12.11-2.05l-30.36-.17c-12.62.11-22.6-2.42-29.94-7.59s-10.95-14.53-10.83-28.06c.23-14.21 4.18-23.91 11.86-29.08 7.68-5.17 18.05-7.76 31.13-7.76l67.38-.17v21.83h-63.65zm125.04 80.86h19.11v-70.11h23.71v87.51c0 11.48-2.67 20.16-8.02 26.01-5.35 5.86-13.93 8.79-25.76 8.79h-46.57V409.2h42.48c4.78-.11 8.36-1.31 10.75-3.58 2.39-2.28 3.52-5.8 3.41-10.58h-20.98c-12.17 0-21.44-2.44-27.81-7.33-6.37-4.89-9.55-13.87-9.55-26.95v-55.61h23.54v53.56c0 6.6.99 11.03 2.99 13.31 1.99 2.28 6.23 3.41 12.71 3.41v-.18zm108.83-70.11c11.83.11 21.04 2.45 27.63 6.99 6.59 4.55 9.89 13.25 9.89 26.1v56.8h-23.71v-54.08c0-6.25-1.02-10.46-3.07-12.62-2.05-2.16-6.26-3.24-12.62-3.24l-19.11-.17v70.11h-23.71v-89.9h44.7zm106.61 70.62h25.25v19.28h-32.24c-6.14 0-12.14-.65-18-1.96-5.86-1.31-11.12-4.18-15.78-8.61-3.87-3.75-6.88-8.16-9.04-13.22-2.16-5.06-3.53-10.26-4.09-15.61 0-.8-.03-1.62-.09-2.47-.06-.85-.09-1.68-.09-2.47 0-1.02.03-2.05.09-3.07s.14-2.05.26-3.07c.45-5.23 1.76-10.35 3.92-15.35s5.17-9.38 9.04-13.14c4.66-4.43 9.92-7.33 15.78-8.7 5.86-1.37 11.86-2.05 18-2.05l32.24-.17v19.45h-25.25c-.34.11-.71.17-1.11.17h-4.86c-2.28 0-4.49.17-6.65.51-2.16.34-4.21 1.08-6.14 2.22-4.21 2.5-7.02 5.86-8.44 10.06-1.42 4.21-2.13 8.59-2.13 13.13.11 4.44.91 8.67 2.39 12.71 1.48 4.04 4.21 7.25 8.19 9.64 1.93 1.14 3.98 1.88 6.14 2.22 2.16.34 4.38.57 6.65.68h5.97v-.18z"/><path d="M1216.85 272.56h279.92v22.35h-279.92z" class="st0"/></svg>