<svg xmlns="http://www.w3.org/2000/svg" xml:space="preserve" id="Layer_1" x="0" y="0" style="enable-background:new 0 0 2000 1400" version="1.1" viewBox="0 0 2000 1400"><style>.st0{fill:#00ace8}.st1{fill:#fff}</style><path d="M0 0h2000v1400H0z"/><path d="m1175.47 479.54-2.46-6.15-21.56 21.56-1.29 1.32L921.62 724.8a44.019 44.019 0 0 0-18.6-4.15c-24.38.01-44.21 19.84-44.21 44.21-.01 24.39 19.84 44.24 44.21 44.24s44.19-19.84 44.21-44.24c-.01-6.4-1.42-12.77-4.12-18.6l37.24-37.19 7.26-7.31 169.8-169.78c.59 5.54.88 11.07.89 16.52-.01 41.02-15.92 79.73-44.82 109-28.88 29.22-67.31 45.63-108.26 46.17l-1.77.03-28.41 28.41 9.09.96c6.23.67 12.62 1 18.97 1 51.16-.01 97.55-20.81 131.15-54.41s54.4-80 54.41-131.15c0-23.92-4.45-47.13-13.19-68.97zM903.02 778.72c-7.63 0-13.83-6.21-13.84-13.85 0-7.63 6.21-13.83 13.84-13.83 7.62 0 13.83 6.2 13.83 13.83 0 7.64-6.21 13.85-13.83 13.85z" class="st0"/><path d="m1140.57 425.35 9.38 12.39c1.96 2.61 3.86 5.25 5.65 7.88l1.27 1.87-19.16 19.16-.07-.07-102.56 102.56-4.16-3.5a37.45 37.45 0 0 0 6.83-21.63c0-4.11-.64-8.08-1.91-11.81l-.56-1.61 105.29-105.24zm-115.33 153.63-3.51-4.15a37.905 37.905 0 0 1-10.27 5.1 37.968 37.968 0 0 1-11.36 1.74c-4.11 0-8.08-.65-11.81-1.91l-1.61-.56-54.63 54.63c-1.64-.31-3.33-.47-5.04-.47-7.29 0-14.15 2.85-19.33 8.03-5.16 5.16-8.01 12.03-8.01 19.32.01 7.3 2.85 14.15 8.02 19.33 5.16 5.16 12.03 8.02 19.32 8.02 7.54 0 14.37-3.07 19.32-8.02 4.96-4.96 8.02-11.79 8.02-19.33 0-3.2-.55-6.32-1.6-9.25l72.49-72.48zm-92.19 87.74a8.457 8.457 0 0 1-6.02 2.49c-2.27 0-4.41-.89-6.01-2.49a8.466 8.466 0 0 1-2.5-6.02c0-2.35.96-4.48 2.5-6.01a8.513 8.513 0 0 1 6.02-2.5c2.27 0 4.41.89 6.02 2.5 1.61 1.61 2.5 3.74 2.5 6.01s-.89 4.41-2.51 6.02z" class="st1"/><path d="M1019.71 524.41c5.24 5.24 8.12 12.19 8.11 19.6 0 3.69-.73 7.29-2.09 10.6-1.37 3.32-3.41 6.37-6.02 8.99-5.24 5.24-12.19 8.12-19.59 8.12s-14.35-2.88-19.59-8.12c-5.24-5.24-8.12-12.19-8.12-19.59-.01-7.41 2.87-14.36 8.11-19.6 5.24-5.24 12.19-8.12 19.6-8.11 7.39 0 14.35 2.88 19.59 8.11zm77.27-245.48c-24.38-.01-44.21 19.84-44.2 44.23-.01 6.4 1.41 12.77 4.12 18.6l-37.25 37.19-7.25 7.32-169.81 169.77c-.59-5.54-.88-11.07-.88-16.52-.01-41.02 15.91-79.73 44.81-108.99 28.85-29.28 67.31-45.63 108.26-46.18l1.77-.02 28.41-28.41-9.09-.97c-6.24-.66-12.62-.99-18.97-.99-102.32-.01-185.57 83.24-185.57 185.56 0 23.93 4.44 47.13 13.19 68.97l2.46 6.14 21.56-21.56 1.25-1.26 228.59-228.59c5.82 2.71 12.19 4.14 18.6 4.13 12.19.01 23.24-4.95 31.24-12.95 8.01-8.01 12.97-19.05 12.96-31.25.01-24.38-19.82-44.23-44.2-44.22zm0 58.06c-3.68-.01-7.16-1.44-9.78-4.06a13.78 13.78 0 0 1-4.06-9.78c0-7.64 6.21-13.86 13.84-13.86 7.61 0 13.83 6.22 13.83 13.86.01 7.64-6.2 13.84-13.83 13.84z" class="st0"/><path d="M969.07 522.38a37.48 37.48 0 0 0-6.83 21.64c0 4.11.65 8.08 1.91 11.81l.56 1.61-105.28 105.23-9.37-12.4c-1.97-2.6-3.88-5.25-5.65-7.88l-1.28-1.87 19.17-19.16.07.07 102.56-102.56 4.14 3.51zM1092.28 408c-5.17-5.17-12.03-8.02-19.33-8.03-15.07 0-27.33 12.26-27.34 27.34.01 3.21.56 6.33 1.61 9.25l-72.46 72.46 3.5 4.16c3.17-2.23 6.62-3.94 10.28-5.09 3.63-1.15 7.45-1.74 11.36-1.74 4.11 0 8.08.65 11.81 1.91l1.61.56 54.63-54.63c1.64.3 3.32.46 5.02.46 7.54 0 14.38-3.07 19.33-8.02 4.95-4.95 8.02-11.79 8.02-19.32-.02-7.29-2.87-14.15-8.04-19.31zm-13.3 25.33c-1.62 1.62-3.75 2.5-6.02 2.5s-4.41-.89-6.01-2.49a8.442 8.442 0 0 1-2.5-6.02c0-2.27.89-4.41 2.5-6.02 1.61-1.61 3.74-2.49 6.01-2.49s4.41.89 6.02 2.5a8.433 8.433 0 0 1 2.49 6.01c0 2.27-.89 4.4-2.49 6.01z" class="st1"/><path d="M601.32 969.11h88.07v105.09h-80.17c-10.2 0-20.07-.86-29.6-2.59-9.54-1.73-18.42-5.96-26.64-12.7-9.87-8.06-16.77-17.88-20.72-29.48-3.95-11.59-6.09-23.47-6.41-35.65-.17-2.63-.21-5.18-.12-7.65.08-2.47.2-4.93.37-7.4 1.81-27.96 9.41-48.51 22.82-61.67 13.4-13.15 33.51-19.73 60.32-19.73l80.17-.25v30.59h-80.17c-17.6.17-28.99 6.38-34.17 18.63-5.18 12.25-7.77 25.7-7.77 40.33v.74c0 14.97 2.59 27.88 7.77 38.73 5.18 10.85 16.57 16.28 34.17 16.28l41.94-.25v-41.69h-49.83v-31.33zm115.2-39.72v-32.32h36.02v32.32h-36.02zm0 144.81v-130h36.02v130h-36.02zm76.97-130v-47.12h34.29v47.12h36.26v25.9h-36.26v52.54c-.16 12.99 2.8 20.56 8.88 22.7 6.08 2.14 14.47 3.21 25.16 3.21h2.22v25.66h-31.33c-12.99 0-22.78-3.62-29.36-10.85-6.58-7.23-9.87-17.1-9.87-29.6V970.1H769.3v-25.9h24.19z" class="st0"/><path d="M945.44 928.65c-8.06.17-14.84 1.85-20.35 5.06-5.51 3.21-8.26 9.34-8.26 18.38 0 6.91 2.34 11.84 7.03 14.8 4.69 2.96 10.15 4.44 16.4 4.44l49.34-.25c1.81.17 3.7.25 5.67.25 1.97 0 3.95.09 5.92.25a80.3 80.3 0 0 1 17.02 2.84c5.59 1.57 10.52 4.4 14.8 8.51 3.95 3.62 6.91 7.98 8.88 13.07 1.97 5.1 3.21 10.36 3.7 15.79.16 1.65.29 3.25.37 4.81.08 1.56.12 3.17.12 4.81-.33 20.56-6.01 34.5-17.02 41.81-11.02 7.32-25.99 10.98-44.9 10.98H885v-31.58h93.25c8.22.17 15.33-1.15 21.34-3.95 6-2.8 8.43-9.13 7.28-19-.82-7.73-3.7-12.5-8.63-14.31-4.93-1.81-10.77-2.8-17.51-2.96l-43.91-.25c-18.25.16-32.69-3.49-43.29-10.98-10.61-7.48-15.83-21.01-15.66-40.58.33-20.56 6.04-34.57 17.14-42.06 11.1-7.48 26.11-11.22 45.02-11.22l97.44-.25v31.58h-92.03zm180.82 116.93h27.63V944.2h34.29v126.55c0 16.61-3.86 29.15-11.59 37.62-7.73 8.47-20.15 12.71-37.25 12.71h-67.35v-26.4h61.43c6.91-.17 12.09-1.89 15.54-5.18 3.45-3.29 5.1-8.39 4.93-15.29h-30.34c-17.6 0-31-3.53-40.21-10.61-9.21-7.07-13.81-20.06-13.81-38.98V944.2h34.04v77.46c0 9.54 1.44 15.95 4.32 19.24 2.87 3.29 9 4.93 18.38 4.93v-.25zm157.38-101.38c17.1.16 30.42 3.54 39.96 10.11 9.54 6.58 14.31 19.16 14.31 37.74v82.15h-34.29V996c0-9.04-1.48-15.13-4.44-18.25-2.96-3.12-9.05-4.69-18.25-4.69l-27.63-.25v101.39h-34.29v-130h64.63zm154.18 102.12h36.51v27.88h-46.62c-8.88 0-17.56-.94-26.03-2.84-8.47-1.89-16.08-6.04-22.82-12.46-5.59-5.43-9.95-11.8-13.08-19.12-3.13-7.32-5.1-14.84-5.92-22.57 0-1.15-.04-2.34-.12-3.58-.09-1.23-.12-2.42-.12-3.58 0-1.48.04-2.96.12-4.44.08-1.48.2-2.96.37-4.44.65-7.56 2.55-14.96 5.67-22.2 3.12-7.23 7.48-13.57 13.08-19 6.74-6.41 14.35-10.61 22.82-12.58 8.47-1.97 17.15-2.96 26.03-2.96l46.62-.25v28.12h-36.51c-.49.17-1.03.25-1.6.25h-7.03c-3.29 0-6.5.25-9.62.74-3.13.49-6.09 1.56-8.88 3.21-6.09 3.62-10.16 8.47-12.21 14.55-2.06 6.09-3.08 12.42-3.08 18.99.16 6.42 1.31 12.54 3.45 18.38s6.08 10.49 11.84 13.94a25.05 25.05 0 0 0 8.88 3.21c3.12.49 6.33.82 9.62.99h8.63v-.24z" class="st1"/><path d="M1069.52 897.08h404.81v32.32h-404.81z" class="st0"/></svg>