<svg xmlns="http://www.w3.org/2000/svg" xml:space="preserve" style="enable-background:new 0 0 2000 2000" viewBox="0 0 2000 2000"><path d="m1255.05 906.28-3.58-8.94-31.34 31.33-1.87 1.92-332.19 332.19a63.862 63.862 0 0 0-27.04-6.03c-35.43.01-64.26 28.83-64.26 64.26-.01 35.46 28.83 64.3 64.26 64.3 35.42 0 64.24-28.84 64.25-64.3a64.605 64.605 0 0 0-5.99-27.03l54.13-54.06 10.55-10.62 246.82-246.79c.85 8.05 1.28 16.09 1.29 24.01-.01 59.63-23.15 115.9-65.14 158.43-41.98 42.48-97.83 66.32-157.36 67.11l-2.57.04-41.3 41.3 13.22 1.39c9.06.98 18.34 1.46 27.57 1.46 74.36-.01 141.79-30.25 190.64-79.09 48.85-48.85 79.08-116.28 79.09-190.64-.01-34.76-6.47-68.49-19.18-100.24zm-396.02 434.88c-11.09 0-20.11-9.03-20.12-20.14 0-11.09 9.03-20.11 20.12-20.11 11.08 0 20.1 9.01 20.1 20.1 0 11.11-9.01 20.15-20.1 20.15zm169.61-369.65c7.61 7.61 11.8 17.72 11.78 28.49 0 5.36-1.05 10.6-3.04 15.41-2 4.83-4.95 9.26-8.75 13.06-7.61 7.61-17.72 11.8-28.47 11.8s-20.87-4.19-28.47-11.8c-7.61-7.61-11.8-17.72-11.8-28.47-.01-10.76 4.18-20.88 11.78-28.49 7.61-7.61 17.72-11.8 28.49-11.78 10.76-.01 20.87 4.17 28.48 11.78zm112.33-356.82c-35.43-.02-64.25 28.83-64.25 64.28a63.922 63.922 0 0 0 5.99 27.04l-54.14 54.05-10.54 10.63-246.82 246.78c-.85-8.06-1.28-16.1-1.27-24.01-.01-59.63 23.12-115.89 65.14-158.42 41.93-42.56 97.83-66.32 157.36-67.12l2.57-.03 41.3-41.3-13.21-1.41c-9.07-.97-18.35-1.44-27.58-1.44-148.73-.01-269.73 120.99-269.73 269.72 0 34.78 6.46 68.5 19.17 100.26l3.57 8.93 31.33-31.33 1.81-1.83 332.26-332.27c8.46 3.94 17.71 6.02 27.04 6 17.72.01 33.77-7.19 45.41-18.83 11.64-11.64 18.85-27.69 18.84-45.42.01-35.45-28.82-64.29-64.25-64.28zm0 84.4c-5.35-.01-10.4-2.1-14.21-5.9-3.8-3.8-5.89-8.85-5.9-14.21 0-11.11 9.03-20.15 20.12-20.15 11.07 0 20.1 9.04 20.1 20.15 0 11.08-9.02 20.11-20.11 20.11z" style="fill:#00ace8"/><path d="m1204.33 827.52 13.64 18.01c2.85 3.79 5.61 7.63 8.22 11.45l1.84 2.72-27.85 27.85-.1-.1L1051 1036.52l-6.05-5.08c6.49-9.23 9.93-20.1 9.93-31.44 0-5.97-.93-11.75-2.77-17.16l-.81-2.33 153.03-152.99zm-167.64 223.31-5.1-6.04a55.089 55.089 0 0 1-14.93 7.41 55.063 55.063 0 0 1-16.51 2.52c-5.97 0-11.74-.94-17.16-2.77l-2.33-.81-79.4 79.4c-2.39-.45-4.83-.68-7.32-.68-10.59 0-20.57 4.15-28.09 11.67-7.51 7.51-11.64 17.48-11.64 28.08.01 10.6 4.14 20.57 11.66 28.09 7.51 7.51 17.49 11.65 28.08 11.65 10.96 0 20.89-4.46 28.09-11.65 7.21-7.21 11.66-17.14 11.66-28.09 0-4.65-.8-9.19-2.33-13.45l105.32-105.33zm-134 127.54a12.316 12.316 0 0 1-8.75 3.62c-3.29 0-6.41-1.29-8.74-3.62a12.334 12.334 0 0 1-3.64-8.76c0-3.41 1.39-6.51 3.63-8.74 2.25-2.25 5.34-3.64 8.75-3.64 3.3 0 6.41 1.29 8.76 3.64 2.33 2.33 3.63 5.44 3.63 8.74s-1.3 6.41-3.64 8.76zm52.35-209.82c-6.49 9.23-9.92 20.11-9.92 31.45 0 5.97.94 11.74 2.77 17.16l.81 2.33-153.02 152.98-13.63-18.03c-2.86-3.78-5.63-7.63-8.22-11.45l-1.86-2.72 27.86-27.86.1.1L949 963.45l6.04 5.1zm179.1-166.25c-7.52-7.52-17.49-11.65-28.09-11.67-21.91 0-39.73 17.83-39.75 39.75.01 4.66.81 9.2 2.33 13.45L963.31 949.15l5.09 6.05c4.61-3.24 9.62-5.72 14.94-7.39 5.28-1.68 10.83-2.53 16.51-2.53 5.97 0 11.74.94 17.16 2.78l2.33.81 79.4-79.4c2.39.44 4.83.67 7.3.67 10.96 0 20.9-4.47 28.09-11.66 7.19-7.2 11.65-17.13 11.65-28.09.01-10.61-4.14-20.59-11.64-28.09zm-19.34 36.81a12.31 12.31 0 0 1-8.76 3.64c-3.3 0-6.41-1.29-8.74-3.62a12.31 12.31 0 0 1-3.64-8.76c0-3.3 1.29-6.41 3.64-8.76 2.33-2.33 5.44-3.62 8.74-3.62s6.41 1.29 8.76 3.64c2.33 2.33 3.62 5.44 3.62 8.74s-1.29 6.41-3.62 8.74z"/></svg>